<svg width="25" height="24" viewBox="0 0 25 24" fill="none" xmlns="http://www.w3.org/2000/svg">
<path fill-rule="evenodd" clip-rule="evenodd" d="M9.6665 1.25C10.0807 1.25 10.4165 1.58579 10.4165 2V3.26061C11.0857 3.25 11.8293 3.25 12.6554 3.25H12.6776C13.5037 3.25 14.2473 3.25 14.9165 3.26061V2C14.9165 1.58579 15.2523 1.25 15.6665 1.25C16.0807 1.25 16.4165 1.58579 16.4165 2V3.31358C17.9284 3.40837 19.09 3.65335 20.0463 4.34815C20.5344 4.70281 20.9637 5.13209 21.3184 5.62023C22.1202 6.7239 22.3229 8.10088 22.3871 9.97432C22.4165 10.8315 22.4165 11.8289 22.4165 12.989V13.011C22.4165 14.1711 22.4165 15.1685 22.3871 16.0257C22.3229 17.8991 22.1202 19.2761 21.3184 20.3798C20.9637 20.8679 20.5344 21.2972 20.0463 21.6518C18.9426 22.4537 17.5656 22.6564 15.6922 22.7206C14.8349 22.75 13.8375 22.75 12.6773 22.75H12.6212C10.7847 22.75 9.34511 22.75 8.20298 22.6263C7.03744 22.5 6.09306 22.2377 5.28674 21.6518C4.79859 21.2972 4.36931 20.8679 4.01466 20.3798C3.42883 19.5734 3.16651 18.6291 3.04023 17.4635C2.91649 16.3214 2.9165 14.8818 2.9165 13.0452L2.9165 12.9889C2.9165 11.8289 2.9165 10.8315 2.94587 9.97432C3.01006 8.10087 3.2128 6.7239 4.01466 5.62023C4.36931 5.13209 4.79859 4.70281 5.28674 4.34815C6.24306 3.65335 7.40459 3.40837 8.9165 3.31358V2C8.9165 1.58579 9.25229 1.25 9.6665 1.25ZM8.9165 4.81725C7.55445 4.91092 6.76828 5.12585 6.16842 5.56168C5.80761 5.82382 5.49032 6.14111 5.22818 6.50191C4.79236 7.10177 4.57742 7.88795 4.48375 9.25H20.8493C20.7556 7.88795 20.5407 7.10177 20.1048 6.50191C19.8427 6.14111 19.5254 5.82382 19.1646 5.56168C18.5647 5.12585 17.7786 4.91092 16.4165 4.81725V5C16.4165 5.41421 16.0807 5.75 15.6665 5.75C15.2523 5.75 14.9165 5.41421 14.9165 5V4.76079C14.2569 4.75005 13.5141 4.75 12.6665 4.75C11.8189 4.75 11.0761 4.75005 10.4165 4.76079V5C10.4165 5.41421 10.0807 5.75 9.6665 5.75C9.25229 5.75 8.9165 5.41421 8.9165 5V4.81725ZM20.9057 10.75H4.42729C4.41655 11.4096 4.4165 12.1524 4.4165 13C4.4165 14.8916 4.41753 16.25 4.53151 17.302C4.64396 18.3399 4.8591 18.9901 5.22818 19.4981C5.49032 19.8589 5.80761 20.1762 6.16842 20.4383C6.67642 20.8074 7.32664 21.0225 8.36455 21.135C9.4165 21.249 10.7749 21.25 12.6665 21.25C13.5149 21.25 14.2583 21.2499 14.9183 21.2392C14.9227 20.7645 14.9375 20.4151 14.9873 20.1005C15.377 17.6401 17.3066 15.7105 19.767 15.3208C20.0816 15.271 20.431 15.2562 20.9057 15.2518C20.9165 14.5918 20.9165 13.8483 20.9165 13C20.9165 12.1524 20.9165 11.4096 20.9057 10.75ZM20.8491 16.7528C20.4441 16.7575 20.2067 16.7699 20.0017 16.8023C18.1831 17.0904 16.7569 18.5166 16.4688 20.3352C16.4364 20.5402 16.424 20.7776 16.4193 21.1826C17.7796 21.0888 18.5651 20.8738 19.1646 20.4383C19.5254 20.1762 19.8427 19.8589 20.1048 19.4981C20.5404 18.8986 20.7553 18.1131 20.8491 16.7528Z" fill="#0074E0"/>
<path fill-rule="evenodd" clip-rule="evenodd" d="M20.9057 10.75H4.42729C4.41655 11.4096 4.4165 12.1524 4.4165 13C4.4165 14.8916 4.41753 16.25 4.53151 17.3019C4.64396 18.3399 4.8591 18.9901 5.22818 19.4981C5.49032 19.8589 5.80761 20.1762 6.16842 20.4383C6.67642 20.8074 7.32664 21.0225 8.36455 21.135C9.4165 21.249 10.7749 21.25 12.6665 21.25C13.5149 21.25 14.2583 21.2499 14.9183 21.2392C14.9227 20.7645 14.9375 20.4151 14.9873 20.1005C15.377 17.6401 17.3066 15.7105 19.767 15.3208C20.0816 15.2709 20.431 15.2562 20.9057 15.2518C20.9165 14.5918 20.9165 13.8483 20.9165 13C20.9165 12.1524 20.9165 11.4096 20.9057 10.75ZM20.8491 16.7528C20.4441 16.7574 20.2067 16.7698 20.0017 16.8023C18.1831 17.0903 16.7569 18.5166 16.4688 20.3351C16.4364 20.5402 16.424 20.7776 16.4193 21.1825C17.7796 21.0888 18.5651 20.8738 19.1646 20.4383C19.5254 20.1762 19.8427 19.8589 20.1048 19.4981C20.5404 18.8986 20.7553 18.1131 20.8491 16.7528Z" fill="#0074E0"/>
<path fill-rule="evenodd" clip-rule="evenodd" d="M20.8492 16.7528C20.4443 16.7575 20.2068 16.7698 20.0018 16.8023C18.1833 17.0903 16.757 18.5166 16.469 20.3351C16.4365 20.5402 16.4241 20.7776 16.4194 21.1825C17.7798 21.0888 18.5653 20.8738 19.1647 20.4383C19.5255 20.1762 19.8428 19.8589 20.105 19.4981C20.5405 18.8986 20.7554 18.1131 20.8492 16.7528Z" fill="white"/>
<path d="M8.9165 14C8.9165 13.5858 9.25229 13.25 9.6665 13.25H15.6665C16.0807 13.25 16.4165 13.5858 16.4165 14C16.4165 14.4142 16.0807 14.75 15.6665 14.75H9.6665C9.25229 14.75 8.9165 14.4142 8.9165 14Z" fill="white"/>
</svg>
