<svg width="25" height="25" viewBox="0 0 25 25" fill="none" xmlns="http://www.w3.org/2000/svg">
<path fill-rule="evenodd" clip-rule="evenodd" d="M9.5 2.01526C9.91421 2.01526 10.25 2.35105 10.25 2.76526V4.02586C10.9192 4.01526 11.6628 4.01526 12.4889 4.01526H12.5111C13.3372 4.01526 14.0808 4.01526 14.75 4.02586V2.76526C14.75 2.35105 15.0858 2.01526 15.5 2.01526C15.9142 2.01526 16.25 2.35105 16.25 2.76526V4.07884C17.7619 4.17363 18.9234 4.41861 19.8798 5.11341C20.3679 5.46807 20.7972 5.89735 21.1518 6.38549C21.9537 7.48915 22.1564 8.86613 22.2206 10.7396C22.25 11.5968 22.25 12.5942 22.25 13.7542V13.7763C22.25 14.9363 22.25 15.9337 22.2206 16.7909C22.1564 18.6644 21.9537 20.0414 21.1518 21.145C20.7972 21.6332 20.3679 22.0625 19.8798 22.4171C18.7761 23.219 17.3991 23.4217 15.5257 23.4859C14.6684 23.5153 13.671 23.5153 12.5108 23.5153H12.4547C10.6182 23.5153 9.17861 23.5153 8.03648 23.3915C6.87094 23.2653 5.92656 23.0029 5.12024 22.4171C4.63209 22.0625 4.20281 21.6332 3.84815 21.145C3.26232 20.3387 3.00001 19.3943 2.87373 18.2288C2.74999 17.0866 2.74999 15.647 2.75 13.8105L2.75 13.7542C2.75 12.5941 2.75 11.5968 2.77937 10.7396C2.84356 8.86613 3.0463 7.48915 3.84815 6.38549C4.20281 5.89735 4.63209 5.46807 5.12024 5.11341C6.07655 4.41861 7.23808 4.17363 8.75 4.07884V2.76526C8.75 2.35105 9.08579 2.01526 9.5 2.01526ZM8.75 5.58251C7.38795 5.67618 6.60177 5.89111 6.00191 6.32694C5.64111 6.58908 5.32382 6.90637 5.06168 7.26717C4.62585 7.86703 4.41092 8.65321 4.31725 10.0153H20.6827C20.5891 8.65321 20.3741 7.86703 19.9383 7.26717C19.6762 6.90637 19.3589 6.58908 18.9981 6.32694C18.3982 5.89111 17.6121 5.67618 16.25 5.58251V5.76526C16.25 6.17947 15.9142 6.51526 15.5 6.51526C15.0858 6.51526 14.75 6.17947 14.75 5.76526V5.52604C14.0904 5.51531 13.3476 5.51526 12.5 5.51526C11.6524 5.51526 10.9096 5.51531 10.25 5.52604V5.76526C10.25 6.17947 9.91421 6.51526 9.5 6.51526C9.08579 6.51526 8.75 6.17947 8.75 5.76526V5.58251ZM20.7392 11.5153H4.26079C4.25005 12.1748 4.25 12.9177 4.25 13.7653C4.25 15.6568 4.25103 17.0153 4.365 18.0672C4.47745 19.1051 4.69259 19.7553 5.06168 20.2633C5.32382 20.6241 5.64111 20.9414 6.00191 21.2036C6.50992 21.5727 7.16013 21.7878 8.19805 21.9003C9.24999 22.0142 10.6084 22.0153 12.5 22.0153C13.3483 22.0153 14.0918 22.0152 14.7518 22.0044C14.7562 21.5298 14.771 21.1804 14.8208 20.8658C15.2105 18.4054 17.1401 16.4757 19.6005 16.0861C19.9151 16.0362 20.2645 16.0215 20.7392 16.0171C20.75 15.357 20.75 14.6136 20.75 13.7653C20.75 12.9177 20.75 12.1748 20.7392 11.5153ZM20.6826 17.518C20.2776 17.5227 20.0402 17.5351 19.8352 17.5676C18.0166 17.8556 16.5904 19.2819 16.3023 21.1004C16.2699 21.3054 16.2575 21.5429 16.2528 21.9478C17.6131 21.854 18.3986 21.6391 18.9981 21.2036C19.3589 20.9414 19.6762 20.6241 19.9383 20.2633C20.3738 19.6639 20.5888 18.8784 20.6826 17.518Z" fill="#272A2D"/>
<path d="M8.75 14.7653C8.75 14.351 9.08579 14.0153 9.5 14.0153H15.5C15.9142 14.0153 16.25 14.351 16.25 14.7653C16.25 15.1795 15.9142 15.5153 15.5 15.5153H9.5C9.08579 15.5153 8.75 15.1795 8.75 14.7653Z" fill="#0074E0"/>
</svg>
