<svg width="25" height="25" viewBox="0 0 25 25" fill="none" xmlns="http://www.w3.org/2000/svg">
<path d="M10.4584 9.05437C10.9707 7.51756 12.9982 7.18854 13.9702 8.4845C14.5395 9.24364 14.4998 10.2977 13.8749 11.0118L12.9557 12.0624C12.1215 13.0158 11.6616 14.2396 11.6616 15.5065V15.8231C11.6616 16.2373 11.9974 16.5731 12.4116 16.5731C12.8258 16.5731 13.1616 16.2373 13.1616 15.8231V15.5065C13.1616 14.603 13.4896 13.7301 14.0846 13.0501L15.0038 11.9996C16.0954 10.752 16.1648 8.91067 15.1702 7.5845C13.4722 5.32055 9.93032 5.89532 9.03541 8.58003L8.70011 9.58595C8.56912 9.97891 8.78149 10.4036 9.17445 10.5346C9.56741 10.6656 9.99215 10.4532 10.1231 10.0603L10.4584 9.05437Z" fill="#272A2D"/>
<path fill-rule="evenodd" clip-rule="evenodd" d="M12.4116 2.07312C6.47456 2.07312 1.66162 6.88606 1.66162 12.8231C1.66162 18.7602 6.47456 23.5731 12.4116 23.5731C18.3487 23.5731 23.1616 18.7602 23.1616 12.8231C23.1616 6.88606 18.3487 2.07312 12.4116 2.07312ZM3.16162 12.8231C3.16162 7.71449 7.30299 3.57312 12.4116 3.57312C17.5203 3.57312 21.6616 7.71449 21.6616 12.8231C21.6616 17.9318 17.5203 22.0731 12.4116 22.0731C7.30299 22.0731 3.16162 17.9318 3.16162 12.8231Z" fill="#272A2D"/>
<path d="M13.4116 18.8231C13.4116 19.3754 12.9639 19.8231 12.4116 19.8231C11.8593 19.8231 11.4116 19.3754 11.4116 18.8231C11.4116 18.2708 11.8593 17.8231 12.4116 17.8231C12.9639 17.8231 13.4116 18.2708 13.4116 18.8231Z" fill="#007DFB"/>
</svg>
