<svg width="25" height="25" viewBox="0 0 25 25" fill="none" xmlns="http://www.w3.org/2000/svg">
<path fill-rule="evenodd" clip-rule="evenodd" d="M6.79367 5.73082C4.12685 7.66837 2.79344 8.63715 2.26974 10.0682C2.22773 10.183 2.18994 10.2993 2.15645 10.4168C1.73901 11.8824 2.24832 13.4499 3.26696 16.5849C4.28559 19.7199 4.7949 21.2875 5.99405 22.2277C6.09025 22.3032 6.18918 22.3751 6.29064 22.4432C7.55546 23.2931 9.20364 23.2931 12.5 23.2931C15.7964 23.2931 17.4446 23.2931 18.7094 22.4432C18.8108 22.3751 18.9098 22.3032 19.006 22.2277C20.2051 21.2875 20.7144 19.7199 21.7331 16.5849C22.7517 13.4499 23.261 11.8824 22.8436 10.4168C22.8101 10.2993 22.7723 10.183 22.7303 10.0682C22.2066 8.63715 20.8732 7.66838 18.2064 5.73083C15.5395 3.79327 14.2061 2.82448 12.6833 2.76862C12.5611 2.76414 12.4389 2.76414 12.3167 2.76862C10.7939 2.82448 9.46048 3.79326 6.79367 5.73082ZM10.5 17.8349C10.0858 17.8349 9.75 18.1707 9.75 18.5849C9.75 18.9991 10.0858 19.3349 10.5 19.3349H14.5C14.9142 19.3349 15.25 18.9991 15.25 18.5849C15.25 18.1707 14.9142 17.8349 14.5 17.8349H10.5Z" fill="#0074E0"/>
</svg>
