<svg width="25" height="25" viewBox="0 0 25 25" fill="none" xmlns="http://www.w3.org/2000/svg">
<path fill-rule="evenodd" clip-rule="evenodd" d="M12.7108 1.78286C12.5703 1.7777 12.4297 1.7777 12.2892 1.78286C11.3618 1.81688 10.5268 2.13223 9.61115 2.65717C8.71888 3.16873 7.69165 3.91507 6.38826 4.86204L6.31741 4.91352C5.01402 5.86048 3.98676 6.60682 3.22451 7.29734C2.44232 8.00592 1.88435 8.70267 1.56542 9.57415C1.51711 9.70616 1.47365 9.8399 1.43514 9.9751C1.18092 10.8676 1.22279 11.7593 1.4391 12.7923C1.64989 13.7989 2.04227 15.0065 2.54013 16.5388L2.5672 16.6221C3.06503 18.1543 3.45741 19.3619 3.87858 20.3002C4.31077 21.2631 4.801 22.0091 5.53127 22.5817C5.64189 22.6684 5.75566 22.7511 5.87234 22.8295C6.6426 23.3471 7.50355 23.5828 8.55284 23.6963C9.57539 23.8069 10.8451 23.8069 12.4562 23.8069H12.5438C14.1549 23.8069 15.4246 23.8069 16.4472 23.6963C17.4965 23.5828 18.3574 23.3471 19.1277 22.8295C19.2444 22.7511 19.3581 22.6684 19.4687 22.5817C20.199 22.0091 20.6892 21.2631 21.1214 20.3002C21.5426 19.3619 21.935 18.1543 22.4328 16.622L22.4599 16.5387C22.9577 15.0066 23.3501 13.7989 23.5609 12.7923C23.7772 11.7593 23.8191 10.8676 23.5649 9.9751C23.5264 9.83991 23.4829 9.70616 23.4346 9.57415C23.1157 8.70267 22.5577 8.00592 21.7755 7.29734C21.0132 6.60681 19.986 5.86048 18.6826 4.91351L18.6117 4.86202C17.3084 3.91506 16.2811 3.16873 15.3889 2.65717C14.4733 2.13223 13.6382 1.81688 12.7108 1.78286ZM12.3442 3.28185C12.448 3.27804 12.552 3.27804 12.6558 3.28185C13.2512 3.30369 13.8443 3.50066 14.6428 3.95847C15.4566 4.42502 16.4189 5.12295 17.7655 6.10131C19.1121 7.07967 20.0733 7.77925 20.7684 8.40902C21.4506 9.02697 21.8212 9.53012 22.026 10.0897C22.0617 10.1872 22.0938 10.2861 22.1222 10.386C22.2855 10.9591 22.2814 11.5839 22.0928 12.4848C21.9005 13.403 21.5341 14.5339 21.0198 16.1169C20.5054 17.6999 20.1371 18.8302 19.753 19.686C19.3761 20.5257 19.0121 21.0336 18.5432 21.4013C18.4614 21.4654 18.3773 21.5265 18.2911 21.5844C17.7965 21.9168 17.201 22.106 16.2859 22.205C15.3533 22.3058 14.1645 22.3069 12.5 22.3069C10.8355 22.3069 9.64673 22.3058 8.71414 22.205C7.79905 22.106 7.2035 21.9168 6.70894 21.5844C6.62269 21.5265 6.5386 21.4654 6.45684 21.4013C5.98796 21.0336 5.62396 20.5257 5.24705 19.686C4.86293 18.8302 4.4946 17.6999 3.98025 16.1169C3.4659 14.5339 3.09951 13.4029 2.90725 12.4848C2.71861 11.5839 2.71454 10.9591 2.87776 10.386C2.90623 10.2861 2.93834 10.1872 2.97405 10.0897C3.17883 9.53012 3.54942 9.02697 4.23157 8.40902C4.92676 7.77925 5.88791 7.07967 7.23451 6.10131C8.5811 5.12295 9.54345 4.42502 10.3572 3.95847C11.1557 3.50066 11.7488 3.30369 12.3442 3.28185Z" fill="#272A2D"/>
<path d="M10.5 17.5986C10.0858 17.5986 9.75 17.9344 9.75 18.3486C9.75 18.7628 10.0858 19.0986 10.5 19.0986H14.5C14.9142 19.0986 15.25 18.7628 15.25 18.3486C15.25 17.9344 14.9142 17.5986 14.5 17.5986H10.5Z" fill="#0074E0"/>
</svg>
