<svg width="25" height="25" viewBox="0 0 25 25" fill="none" xmlns="http://www.w3.org/2000/svg">
<path d="M15.509 3.02252C14.9033 3.01526 14.2362 3.01526 13.5032 3.01526H11.4548C9.61821 3.01525 8.17861 3.01524 7.03648 3.13899C5.87094 3.26527 4.92656 3.52758 4.12024 4.11341C3.63209 4.46807 3.20281 4.89735 2.84815 5.38549C2.69354 5.5983 2.56012 5.8226 2.44538 6.06072C2.07515 6.82905 1.91014 7.72032 1.82976 8.7843C1.75 9.84013 1.75 11.136 1.75 12.7362V12.8105C1.74999 14.647 1.74999 16.0866 1.87373 17.2288C2.00001 18.3943 2.26232 19.3387 2.84815 20.145C3.20281 20.6332 3.63209 21.0625 4.12024 21.4171C4.92656 22.0029 5.87094 22.2653 7.03648 22.3915C8.17859 22.5153 9.61817 22.5153 11.4547 22.5153H13.5453C15.3818 22.5153 16.8214 22.5153 17.9635 22.3915C19.1291 22.2653 20.0734 22.0029 20.8798 21.4171C21.3679 21.0625 21.7972 20.6332 22.1518 20.145C22.7377 19.3387 23 18.3943 23.1263 17.2288C23.25 16.0867 23.25 14.6471 23.25 12.8106V12.7619C23.25 12.0185 23.25 11.3429 23.2424 10.7304C23.2373 10.3162 22.8974 9.98457 22.4832 9.98969C22.069 9.99481 21.7374 10.3347 21.7425 10.7489C21.75 11.3513 21.75 12.0181 21.75 12.7653C21.75 14.6568 21.749 16.0153 21.635 17.0672C21.5225 18.1051 21.3074 18.7553 20.9383 19.2633C20.6762 19.6241 20.3589 19.9414 19.9981 20.2036C19.4901 20.5727 18.8399 20.7878 17.802 20.9003C16.75 21.0142 15.3916 21.0153 13.5 21.0153H11.5C9.60843 21.0153 8.24999 21.0142 7.19804 20.9003C6.16013 20.7878 5.50992 20.5727 5.00191 20.2036C4.64111 19.9414 4.32382 19.6241 4.06168 19.2633C3.69259 18.7553 3.47745 18.1051 3.365 17.0672C3.25103 16.0153 3.25 14.6568 3.25 12.7653C3.25 11.1301 3.25049 9.89019 3.3255 8.8973C3.35746 8.47417 3.4023 8.10887 3.46271 7.78863L4.93916 9.26508C6.57143 10.8974 7.85062 12.1766 8.98288 13.0405C10.1418 13.9247 11.2345 14.4442 12.5 14.4442C14.4309 14.4442 15.9872 13.2286 18.019 11.2811C18.318 10.9944 18.3281 10.5197 18.0414 10.2206C17.7548 9.92162 17.28 9.91157 16.981 10.1982C14.903 12.1901 13.7532 12.9442 12.5 12.9442C11.6944 12.9442 10.9183 12.6304 9.89275 11.8479C8.84994 11.0523 7.64092 9.84552 5.95926 8.16386L4.06205 6.26665C4.32412 5.90607 4.64128 5.58895 5.00191 5.32694C5.50992 4.95785 6.16013 4.74271 7.19804 4.63026C8.24999 4.51629 9.60843 4.51526 11.5 4.51526H13.5C14.2367 4.51526 14.8952 4.51527 15.491 4.52241C15.9052 4.52738 16.245 4.19564 16.2499 3.78145C16.2549 3.36727 15.9232 3.02748 15.509 3.02252Z" fill="#272A2D"/>
<path fill-rule="evenodd" clip-rule="evenodd" d="M20.5 3.01526C18.9812 3.01526 17.75 4.24648 17.75 5.76526C17.75 7.28404 18.9812 8.51526 20.5 8.51526C22.0188 8.51526 23.25 7.28404 23.25 5.76526C23.25 4.24648 22.0188 3.01526 20.5 3.01526ZM19.25 5.76526C19.25 5.0749 19.8096 4.51526 20.5 4.51526C21.1904 4.51526 21.75 5.0749 21.75 5.76526C21.75 6.45562 21.1904 7.01526 20.5 7.01526C19.8096 7.01526 19.25 6.45562 19.25 5.76526Z" fill="#0074E0"/>
</svg>
