<svg width="44" height="44" viewBox="0 0 44 44" fill="none" xmlns="http://www.w3.org/2000/svg">
<g clip-path="url(#clip0_3_546)">
<path d="M22 44C9.84943 44 3.05176e-05 34.1506 3.05176e-05 22V6.6C3.05176e-05 4.84957 0.695385 3.17083 1.93312 1.93309C3.17086 0.695354 4.8496 0 6.60003 0H20.9V9.6514C20.9 11.8536 20.7658 14.135 19.6108 16.0094C18.7839 17.3527 17.6778 18.5024 16.3674 19.3806C15.0571 20.2588 13.5732 20.8449 12.0164 21.0991L11.5951 21.1673C11.4214 21.2267 11.2707 21.3389 11.1639 21.4882C11.0572 21.6375 10.9998 21.8164 10.9998 22C10.9998 22.1836 11.0572 22.3625 11.1639 22.5118C11.2707 22.6611 11.4214 22.7733 11.5951 22.8327L12.0164 22.9009C14.291 23.2725 16.3915 24.3491 18.0212 25.9788C19.6509 27.6085 20.7276 29.709 21.0991 31.9836L21.1673 32.4049C21.2267 32.5786 21.3389 32.7294 21.4882 32.8361C21.6375 32.9429 21.8165 33.0003 22 33.0003C22.1836 33.0003 22.3625 32.9429 22.5119 32.8361C22.6612 32.7294 22.7734 32.5786 22.8327 32.4049L22.9009 31.9836C23.1551 30.4268 23.7412 28.9429 24.6194 27.6325C25.4975 26.3222 26.6473 25.2161 27.9906 24.3892C29.865 23.2342 32.1464 23.1 34.3486 23.1H43.9736C43.3983 34.7391 33.781 44 22 44Z" fill="#F07CF2"/>
<path d="M44 20.9H34.3486C32.1464 20.9 29.865 20.7658 27.9906 19.6108C26.5254 18.708 25.292 17.4746 24.3892 16.0094C23.2342 14.135 23.1 11.8536 23.1 9.6514V0H37.4C39.1504 0 40.8292 0.695354 42.0669 1.93309C43.3046 3.17083 44 4.84957 44 6.6V20.9ZM0 41.8C0 41.2165 0.231781 40.6569 0.644363 40.2444C1.05694 39.8318 1.61652 39.6 2.2 39.6C2.78347 39.6 3.34306 39.8318 3.75563 40.2444C4.16822 40.6569 4.4 41.2165 4.4 41.8C4.4 42.3835 4.16822 42.9431 3.75563 43.3556C3.34306 43.7682 2.78347 44 2.2 44C1.61652 44 1.05694 43.7682 0.644363 43.3556C0.231781 42.9431 0 42.3835 0 41.8Z" fill="#007DFC"/>
</g>
<defs>
<clipPath id="clip0_3_546">
<rect width="44" height="44" fill="white" transform="matrix(-1 0 0 -1 44 44)"/>
</clipPath>
</defs>
</svg>
