<svg width="102" height="20" viewBox="0 0 102 20" fill="none" xmlns="http://www.w3.org/2000/svg">
<g clip-path="url(#clip0_22_1477)">
<path d="M9.45116 18.951C4.23135 18.951 0.000112534 14.7198 0.000112534 9.5V2.88427C0.000112534 2.13229 0.298832 1.41112 0.830557 0.879396C1.36228 0.347672 2.08346 0.0489521 2.83543 0.0489521H8.97861V4.19513C8.97861 5.14118 8.92096 6.12125 8.42478 6.92648C8.06954 7.50355 7.59435 7.99746 7.03144 8.37472C6.46852 8.75198 5.83106 9.00376 5.16228 9.11298L4.98129 9.14228C4.90667 9.16778 4.8419 9.21598 4.79604 9.28012C4.75018 9.34427 4.72552 9.42115 4.72552 9.5C4.72552 9.57885 4.75018 9.65573 4.79604 9.71988C4.8419 9.78402 4.90667 9.83222 4.98129 9.85772L5.16228 9.88702C6.13943 10.0466 7.04177 10.5092 7.74188 11.2093C8.442 11.9094 8.90452 12.8117 9.06414 13.7889L9.09344 13.9699C9.11894 14.0445 9.16714 14.1093 9.23129 14.1551C9.29543 14.201 9.37231 14.2256 9.45116 14.2256C9.53001 14.2256 9.60689 14.201 9.67104 14.1551C9.73518 14.1093 9.78338 14.0445 9.80888 13.9699L9.83818 13.7889C9.94737 13.1201 10.1991 12.4826 10.5764 11.9197C10.9537 11.3568 11.4476 10.8816 12.0247 10.5264C12.8299 10.0302 13.81 9.97255 14.756 9.97255H18.8909C18.6437 14.9726 14.5122 18.951 9.45116 18.951Z" fill="white"/>
<path d="M18.9021 9.02745H14.7559C13.8099 9.02745 12.8298 8.9698 12.0246 8.47362C11.3951 8.08576 10.8653 7.55591 10.4774 6.92648C9.98125 6.12125 9.9236 5.14118 9.9236 4.19513V0.0489521H16.0668C16.8188 0.0489521 17.5399 0.347672 18.0717 0.879396C18.6034 1.41112 18.9021 2.13229 18.9021 2.88427V9.02745ZM1.90735e-06 18.0059C1.90735e-06 17.7553 0.099575 17.5149 0.276815 17.3377C0.454058 17.1604 0.694448 17.0608 0.945107 17.0608C1.19576 17.0608 1.43616 17.1604 1.6134 17.3377C1.79064 17.5149 1.89021 17.7553 1.89021 18.0059C1.89021 18.2566 1.79064 18.497 1.6134 18.6742C1.43616 18.8515 1.19576 18.951 0.945107 18.951C0.694448 18.951 0.454058 18.8515 0.276815 18.6742C0.099575 18.497 1.90735e-06 18.2566 1.90735e-06 18.0059Z" fill="white"/>
</g>
<path d="M31.7912 16V3.24643H34.1193V13.9457H39.5802V16H31.7912ZM45.2803 16.2054C44.3673 16.2054 43.5342 15.9943 42.7809 15.572C42.0391 15.1498 41.4457 14.5734 41.0006 13.843C40.5669 13.1126 40.3501 12.2795 40.3501 11.3437C40.3501 10.4078 40.5669 9.57471 41.0006 8.84431C41.4457 8.1139 42.0391 7.53757 42.7809 7.1153C43.5228 6.69303 44.3559 6.4819 45.2803 6.4819C46.1933 6.4819 47.0207 6.69303 47.7625 7.1153C48.5044 7.53757 49.0921 8.1139 49.5258 8.84431C49.9709 9.5633 50.1934 10.3964 50.1934 11.3437C50.1934 12.2795 49.9709 13.1126 49.5258 13.843C49.0807 14.5734 48.4872 15.1498 47.7454 15.572C47.0036 15.9943 46.1819 16.2054 45.2803 16.2054ZM45.2803 14.1512C45.7825 14.1512 46.2218 14.0313 46.5985 13.7917C46.9865 13.552 47.2889 13.221 47.5058 12.7988C47.734 12.3651 47.8481 11.8801 47.8481 11.3437C47.8481 10.7959 47.734 10.3165 47.5058 9.90568C47.2889 9.48341 46.9865 9.15245 46.5985 8.91278C46.2218 8.66171 45.7825 8.53617 45.2803 8.53617C44.7667 8.53617 44.3159 8.66171 43.9279 8.91278C43.5399 9.15245 43.2317 9.48341 43.0035 9.90568C42.7867 10.3165 42.6782 10.7959 42.6782 11.3437C42.6782 11.8801 42.7867 12.3651 43.0035 12.7988C43.2317 13.221 43.5399 13.552 43.9279 13.7917C44.3159 14.0313 44.7667 14.1512 45.2803 14.1512ZM52.6856 19.7833C52.4345 19.7833 52.1891 19.7604 51.9494 19.7148C51.7098 19.6806 51.4929 19.6178 51.2989 19.5265V17.6434C51.4473 17.6777 51.6242 17.7119 51.8296 17.7461C52.0464 17.7804 52.2462 17.7975 52.4288 17.7975C52.9423 17.7975 53.3132 17.6777 53.5415 17.438C53.7812 17.1983 53.9923 16.8845 54.1749 16.4964L54.7912 15.0585L54.7569 16.9415L50.6998 6.68733H53.1135L55.9553 14.2539H55.0993L57.9239 6.68733H60.3548L56.2976 16.9415C56.058 17.5464 55.767 18.06 55.4246 18.4822C55.0822 18.9045 54.6828 19.2241 54.2263 19.4409C53.7812 19.6691 53.2676 19.7833 52.6856 19.7833ZM63.9054 16.2054C63.2549 16.2054 62.6899 16.097 62.2106 15.8802C61.7313 15.6633 61.3604 15.3552 61.0979 14.9557C60.8354 14.5449 60.7041 14.0713 60.7041 13.5349C60.7041 13.0213 60.8183 12.5648 61.0465 12.1654C61.2748 11.7545 61.6286 11.4121 62.1079 11.1382C62.5872 10.8643 63.1921 10.6703 63.9225 10.5562L66.9697 10.0597V11.7716L64.3505 12.2167C63.9054 12.2966 63.5744 12.4393 63.3576 12.6447C63.1407 12.8501 63.0323 13.1183 63.0323 13.4493C63.0323 13.7688 63.1521 14.0256 63.3918 14.2196C63.6429 14.4022 63.951 14.4935 64.3162 14.4935C64.7841 14.4935 65.195 14.3965 65.5488 14.2025C65.914 13.9971 66.1936 13.7175 66.3876 13.3637C66.593 13.0099 66.6958 12.6219 66.6958 12.1996V9.80296C66.6958 9.40352 66.536 9.07256 66.2164 8.81007C65.9083 8.53617 65.4974 8.39922 64.9839 8.39922C64.5045 8.39922 64.0766 8.53046 63.6999 8.79295C63.3347 9.04403 63.0666 9.3807 62.8954 9.80296L61.0636 8.91278C61.2462 8.42204 61.5316 7.99978 61.9196 7.64599C62.319 7.28078 62.7869 6.99547 63.3233 6.79004C63.8597 6.58461 64.4418 6.4819 65.0695 6.4819C65.8341 6.4819 66.5074 6.62456 67.0895 6.90987C67.6715 7.18378 68.1223 7.5718 68.4419 8.07396C68.7728 8.5647 68.9383 9.14103 68.9383 9.80296V16H66.8156V14.4079L67.2949 14.3737C67.0553 14.7731 66.7699 15.1098 66.439 15.3837C66.108 15.6462 65.7314 15.8516 65.3091 16C64.8869 16.137 64.4189 16.2054 63.9054 16.2054ZM74.1609 16.2054C73.4419 16.2054 72.8142 16.0457 72.2778 15.7261C71.7529 15.4065 71.3477 14.9615 71.0624 14.3908C70.7885 13.8202 70.6516 13.1526 70.6516 12.3879V6.68733H72.8941V12.1996C72.8941 12.5876 72.9683 12.93 73.1167 13.2267C73.2764 13.5121 73.499 13.7403 73.7843 13.9115C74.081 14.0713 74.412 14.1512 74.7772 14.1512C75.1424 14.1512 75.4677 14.0713 75.753 13.9115C76.0383 13.7403 76.2608 13.5063 76.4206 13.2096C76.5804 12.9129 76.6603 12.5591 76.6603 12.1483V6.68733H78.9029V16H76.7801V14.1683L76.9684 14.4935C76.7516 15.0642 76.3921 15.4921 75.8899 15.7775C75.3992 16.0628 74.8229 16.2054 74.1609 16.2054ZM85.0618 16.1027C84.0118 16.1027 83.1958 15.8174 82.6138 15.2468C82.0431 14.6647 81.7578 13.8487 81.7578 12.7988V8.69024H80.1487V6.68733H80.3198C80.7763 6.68733 81.1301 6.5675 81.3812 6.32783C81.6323 6.08817 81.7578 5.74008 81.7578 5.28358V4.56459H84.0004V6.68733H86.1403V8.69024H84.0004V12.6789C84.0004 12.9871 84.0518 13.2496 84.1545 13.4664C84.2686 13.6832 84.4398 13.8487 84.668 13.9629C84.9077 14.077 85.2101 14.134 85.5753 14.134C85.6552 14.134 85.7465 14.1283 85.8492 14.1169C85.9634 14.1055 86.0718 14.0941 86.1745 14.0827V16C86.0147 16.0228 85.8321 16.0457 85.6267 16.0685C85.4213 16.0913 85.233 16.1027 85.0618 16.1027ZM92.0498 16.2054C91.0911 16.2054 90.2523 15.9886 89.5333 15.5549C88.8143 15.1212 88.2551 14.5335 87.8556 13.7917C87.4562 13.0498 87.2565 12.2281 87.2565 11.3265C87.2565 10.3907 87.4562 9.5633 87.8556 8.84431C88.2665 8.1139 88.82 7.53757 89.5162 7.1153C90.2237 6.69303 91.0112 6.4819 91.8786 6.4819C92.609 6.4819 93.2481 6.60173 93.7959 6.8414C94.3551 7.08106 94.8287 7.41203 95.2167 7.83429C95.6048 8.25656 95.9015 8.74159 96.1069 9.2894C96.3124 9.82579 96.4151 10.4078 96.4151 11.0355C96.4151 11.1953 96.4037 11.3608 96.3808 11.532C96.3694 11.7032 96.3409 11.8515 96.2952 11.9771H89.1053V10.2652H95.0284L93.9671 11.0698C94.0698 10.5448 94.0412 10.0769 93.8815 9.66601C93.7331 9.25516 93.482 8.9299 93.1282 8.69024C92.7859 8.45057 92.3693 8.33074 91.8786 8.33074C91.4106 8.33074 90.9941 8.45057 90.6289 8.69024C90.2637 8.91849 89.9841 9.26087 89.7901 9.71737C89.6075 10.1625 89.539 10.7046 89.5846 11.3437C89.539 11.9143 89.6132 12.4222 89.8072 12.8672C90.0126 13.3009 90.3093 13.6376 90.6974 13.8773C91.0968 14.1169 91.5533 14.2368 92.0669 14.2368C92.5804 14.2368 93.0141 14.1283 93.3679 13.9115C93.7331 13.6947 94.0184 13.4036 94.2239 13.0384L96.0385 13.9286C95.8559 14.3737 95.5705 14.7674 95.1825 15.1098C94.7945 15.4522 94.3323 15.7204 93.7959 15.9144C93.2709 16.1084 92.6889 16.2054 92.0498 16.2054ZM90.7316 5.04392L91.8443 2.08235H94.7545L92.9399 5.04392H90.7316Z" fill="white"/>
<defs>
<clipPath id="clip0_22_1477">
<rect width="18.9021" height="18.9021" fill="white" transform="matrix(-1 0 0 -1 18.9021 18.951)"/>
</clipPath>
</defs>
</svg>
