<svg width="27" height="27" viewBox="0 0 27 27" fill="none" xmlns="http://www.w3.org/2000/svg">
<g clip-path="url(#clip0_2_31)">
<path d="M13.25 27C5.93206 27 3.05176e-05 21.068 3.05176e-05 13.75V4.475C3.05176e-05 3.42076 0.418823 2.40971 1.16428 1.66425C1.90974 0.918793 2.9208 0.5 3.97503 0.5H12.5875V6.31277C12.5875 7.6391 12.5067 9.01312 11.8111 10.142C11.3131 10.951 10.6469 11.6435 9.85767 12.1724C9.06849 12.7013 8.17479 13.0543 7.23718 13.2074L6.98344 13.2485C6.87884 13.2842 6.78803 13.3518 6.72373 13.4417C6.65944 13.5317 6.62486 13.6395 6.62486 13.75C6.62486 13.8605 6.65944 13.9683 6.72373 14.0583C6.78803 14.1482 6.87884 14.2158 6.98344 14.2515L7.23718 14.2926C8.60712 14.5164 9.87216 15.1648 10.8537 16.1463C11.8352 17.1279 12.4837 18.3929 12.7074 19.7628L12.7485 20.0166C12.7843 20.1212 12.8518 20.212 12.9418 20.2763C13.0317 20.3406 13.1395 20.3752 13.25 20.3752C13.3606 20.3752 13.4684 20.3406 13.5583 20.2763C13.6482 20.212 13.7158 20.1212 13.7515 20.0166L13.7926 19.7628C13.9457 18.8252 14.2987 17.9315 14.8276 17.1423C15.3565 16.3531 16.049 15.6869 16.858 15.189C17.9869 14.4933 19.3609 14.4125 20.6873 14.4125H26.4841C26.1376 21.4224 20.3454 27 13.25 27Z" fill="#F07CF2"/>
<path d="M26.5 13.0875H20.6872C19.3609 13.0875 17.9869 13.0067 16.858 12.311C15.9755 11.7673 15.2327 11.0245 14.689 10.142C13.9933 9.01312 13.9125 7.6391 13.9125 6.31277V0.5H22.525C23.5792 0.5 24.5903 0.918793 25.3357 1.66425C26.0812 2.40971 26.5 3.42076 26.5 4.475V13.0875ZM0 25.675C0 25.3236 0.139595 24.9866 0.388083 24.7381C0.636568 24.4896 0.973587 24.35 1.325 24.35C1.67641 24.35 2.01343 24.4896 2.26192 24.7381C2.5104 24.9866 2.65 25.3236 2.65 25.675C2.65 26.0264 2.5104 26.3634 2.26192 26.6119C2.01343 26.8604 1.67641 27 1.325 27C0.973587 27 0.636568 26.8604 0.388083 26.6119C0.139595 26.3634 0 26.0264 0 25.675Z" fill="white"/>
</g>
<defs>
<clipPath id="clip0_2_31">
<rect width="26.5" height="26.5" fill="white" transform="matrix(-1 0 0 -1 26.5 27)"/>
</clipPath>
</defs>
</svg>
