<svg width="143" height="30" viewBox="0 0 143 30" fill="none" xmlns="http://www.w3.org/2000/svg">
<g clip-path="url(#clip0_93_713)">
<path d="M13.25 27.25C5.93206 27.25 3.05176e-05 21.318 3.05176e-05 14V4.725C3.05176e-05 3.67076 0.418823 2.65971 1.16428 1.91425C1.90974 1.16879 2.9208 0.75 3.97503 0.75H12.5875V6.56277C12.5875 7.8891 12.5067 9.26312 11.8111 10.392C11.3131 11.201 10.6469 11.8935 9.85767 12.4224C9.06849 12.9513 8.17479 13.3043 7.23718 13.4574L6.98344 13.4985C6.87884 13.5342 6.78803 13.6018 6.72373 13.6917C6.65944 13.7817 6.62486 13.8895 6.62486 14C6.62486 14.1105 6.65944 14.2183 6.72373 14.3083C6.78803 14.3982 6.87884 14.4658 6.98344 14.5015L7.23718 14.5426C8.60712 14.7664 9.87216 15.4148 10.8537 16.3963C11.8352 17.3779 12.4837 18.6429 12.7074 20.0128L12.7485 20.2666C12.7843 20.3712 12.8518 20.462 12.9418 20.5263C13.0317 20.5906 13.1395 20.6252 13.25 20.6252C13.3606 20.6252 13.4684 20.5906 13.5583 20.5263C13.6482 20.462 13.7158 20.3712 13.7515 20.2666L13.7926 20.0128C13.9457 19.0752 14.2987 18.1815 14.8276 17.3923C15.3565 16.6031 16.049 15.9369 16.858 15.439C17.9869 14.7433 19.3609 14.6625 20.6873 14.6625H26.4841C26.1376 21.6724 20.3454 27.25 13.25 27.25Z" fill="#F07CF2"/>
<path d="M26.5 13.3375H20.6872C19.3609 13.3375 17.9869 13.2567 16.858 12.561C15.9755 12.0173 15.2327 11.2745 14.689 10.392C13.9933 9.26312 13.9125 7.8891 13.9125 6.56277V0.75H22.525C23.5792 0.75 24.5903 1.16879 25.3357 1.91425C26.0812 2.65971 26.5 3.67076 26.5 4.725V13.3375ZM0 25.925C0 25.5736 0.139595 25.2366 0.388083 24.9881C0.636568 24.7396 0.973587 24.6 1.325 24.6C1.67641 24.6 2.01343 24.7396 2.26192 24.9881C2.5104 25.2366 2.65 25.5736 2.65 25.925C2.65 26.2764 2.5104 26.6134 2.26192 26.8619C2.01343 27.1104 1.67641 27.25 1.325 27.25C0.973587 27.25 0.636568 27.1104 0.388083 26.8619C0.139595 26.6134 0 26.2764 0 25.925Z" fill="#007DFC"/>
</g>
<path d="M44.6043 24V6.12H47.8683V21.12H55.5243V24H44.6043ZM63.5155 24.288C62.2355 24.288 61.0675 23.992 60.0115 23.4C58.9715 22.808 58.1395 22 57.5155 20.976C56.9075 19.952 56.6035 18.784 56.6035 17.472C56.6035 16.16 56.9075 14.992 57.5155 13.968C58.1395 12.944 58.9715 12.136 60.0115 11.544C61.0515 10.952 62.2195 10.656 63.5155 10.656C64.7955 10.656 65.9555 10.952 66.9955 11.544C68.0355 12.136 68.8595 12.944 69.4675 13.968C70.0915 14.976 70.4035 16.144 70.4035 17.472C70.4035 18.784 70.0915 19.952 69.4675 20.976C68.8435 22 68.0115 22.808 66.9715 23.4C65.9315 23.992 64.7795 24.288 63.5155 24.288ZM63.5155 21.408C64.2195 21.408 64.8355 21.24 65.3635 20.904C65.9075 20.568 66.3315 20.104 66.6355 19.512C66.9555 18.904 67.1155 18.224 67.1155 17.472C67.1155 16.704 66.9555 16.032 66.6355 15.456C66.3315 14.864 65.9075 14.4 65.3635 14.064C64.8355 13.712 64.2195 13.536 63.5155 13.536C62.7955 13.536 62.1635 13.712 61.6195 14.064C61.0755 14.4 60.6435 14.864 60.3235 15.456C60.0195 16.032 59.8675 16.704 59.8675 17.472C59.8675 18.224 60.0195 18.904 60.3235 19.512C60.6435 20.104 61.0755 20.568 61.6195 20.904C62.1635 21.24 62.7955 21.408 63.5155 21.408ZM73.8974 29.304C73.5454 29.304 73.2014 29.272 72.8654 29.208C72.5294 29.16 72.2254 29.072 71.9534 28.944V26.304C72.1614 26.352 72.4094 26.4 72.6974 26.448C73.0014 26.496 73.2814 26.52 73.5374 26.52C74.2574 26.52 74.7774 26.352 75.0974 26.016C75.4334 25.68 75.7294 25.24 75.9854 24.696L76.8494 22.68L76.8014 25.32L71.1134 10.944H74.4974L78.4814 21.552H77.2814L81.2414 10.944H84.6494L78.9614 25.32C78.6254 26.168 78.2174 26.888 77.7374 27.48C77.2574 28.072 76.6974 28.52 76.0574 28.824C75.4334 29.144 74.7134 29.304 73.8974 29.304ZM89.6271 24.288C88.7151 24.288 87.9231 24.136 87.2511 23.832C86.5791 23.528 86.0591 23.096 85.6911 22.536C85.3231 21.96 85.1391 21.296 85.1391 20.544C85.1391 19.824 85.2991 19.184 85.6191 18.624C85.9391 18.048 86.4351 17.568 87.1071 17.184C87.7791 16.8 88.6271 16.528 89.6511 16.368L93.9231 15.672V18.072L90.2511 18.696C89.6271 18.808 89.1631 19.008 88.8591 19.296C88.5551 19.584 88.4031 19.96 88.4031 20.424C88.4031 20.872 88.5711 21.232 88.9071 21.504C89.2591 21.76 89.6911 21.888 90.2031 21.888C90.8591 21.888 91.4351 21.752 91.9311 21.48C92.4431 21.192 92.8351 20.8 93.1071 20.304C93.3951 19.808 93.5391 19.264 93.5391 18.672V15.312C93.5391 14.752 93.3151 14.288 92.8671 13.92C92.4351 13.536 91.8591 13.344 91.1391 13.344C90.4671 13.344 89.8671 13.528 89.3391 13.896C88.8271 14.248 88.4511 14.72 88.2111 15.312L85.6431 14.064C85.8991 13.376 86.2991 12.784 86.8431 12.288C87.4031 11.776 88.0591 11.376 88.8111 11.088C89.5631 10.8 90.3791 10.656 91.2591 10.656C92.3311 10.656 93.2751 10.856 94.0911 11.256C94.9071 11.64 95.5391 12.184 95.9871 12.888C96.4511 13.576 96.6831 14.384 96.6831 15.312V24H93.7071V21.768L94.3791 21.72C94.0431 22.28 93.6431 22.752 93.1791 23.136C92.7151 23.504 92.1871 23.792 91.5951 24C91.0031 24.192 90.3471 24.288 89.6271 24.288ZM104.005 24.288C102.997 24.288 102.117 24.064 101.365 23.616C100.629 23.168 100.061 22.544 99.661 21.744C99.277 20.944 99.085 20.008 99.085 18.936V10.944H102.229V18.672C102.229 19.216 102.333 19.696 102.541 20.112C102.765 20.512 103.077 20.832 103.477 21.072C103.893 21.296 104.357 21.408 104.869 21.408C105.381 21.408 105.837 21.296 106.237 21.072C106.637 20.832 106.949 20.504 107.173 20.088C107.397 19.672 107.509 19.176 107.509 18.6V10.944H110.653V24H107.677V21.432L107.941 21.888C107.637 22.688 107.133 23.288 106.429 23.688C105.741 24.088 104.933 24.288 104.005 24.288ZM119.288 24.144C117.816 24.144 116.672 23.744 115.856 22.944C115.056 22.128 114.656 20.984 114.656 19.512V13.752H112.4V10.944H112.64C113.28 10.944 113.776 10.776 114.128 10.44C114.48 10.104 114.656 9.616 114.656 8.976V7.968H117.8V10.944H120.8V13.752H117.8V19.344C117.8 19.776 117.872 20.144 118.016 20.448C118.176 20.752 118.416 20.984 118.736 21.144C119.072 21.304 119.496 21.384 120.008 21.384C120.12 21.384 120.248 21.376 120.392 21.36C120.552 21.344 120.704 21.328 120.848 21.312V24C120.624 24.032 120.368 24.064 120.08 24.096C119.792 24.128 119.528 24.144 119.288 24.144ZM129.084 24.288C127.74 24.288 126.564 23.984 125.556 23.376C124.548 22.768 123.764 21.944 123.204 20.904C122.644 19.864 122.364 18.712 122.364 17.448C122.364 16.136 122.644 14.976 123.204 13.968C123.78 12.944 124.556 12.136 125.532 11.544C126.524 10.952 127.628 10.656 128.844 10.656C129.868 10.656 130.764 10.824 131.532 11.16C132.316 11.496 132.98 11.96 133.524 12.552C134.068 13.144 134.484 13.824 134.772 14.592C135.06 15.344 135.204 16.16 135.204 17.04C135.204 17.264 135.188 17.496 135.156 17.736C135.14 17.976 135.1 18.184 135.036 18.36H124.956V15.96H133.26L131.772 17.088C131.916 16.352 131.876 15.696 131.652 15.12C131.444 14.544 131.092 14.088 130.596 13.752C130.116 13.416 129.532 13.248 128.844 13.248C128.188 13.248 127.604 13.416 127.092 13.752C126.58 14.072 126.188 14.552 125.916 15.192C125.66 15.816 125.564 16.576 125.628 17.472C125.564 18.272 125.668 18.984 125.94 19.608C126.228 20.216 126.644 20.688 127.188 21.024C127.748 21.36 128.388 21.528 129.108 21.528C129.828 21.528 130.436 21.376 130.932 21.072C131.444 20.768 131.844 20.36 132.132 19.848L134.676 21.096C134.42 21.72 134.02 22.272 133.476 22.752C132.932 23.232 132.284 23.608 131.532 23.88C130.796 24.152 129.98 24.288 129.084 24.288ZM127.236 8.64L128.796 4.488H132.876L130.332 8.64H127.236Z" fill="#272A2D"/>
<defs>
<clipPath id="clip0_93_713">
<rect width="26.5" height="26.5" fill="white" transform="matrix(-1 0 0 -1 26.5 27.25)"/>
</clipPath>
</defs>
</svg>
