<svg width="25" height="25" viewBox="0 0 25 25" fill="none" xmlns="http://www.w3.org/2000/svg">
<path fill-rule="evenodd" clip-rule="evenodd" d="M9.44858 9.61999C9.85143 7.15763 10.5724 4.65821 10.9233 3.51563C11.4074 3.43737 11.9045 3.39664 12.4116 3.39664C12.9187 3.39664 13.4158 3.43737 13.8999 3.51563C14.2509 4.65822 14.9718 7.15763 15.3747 9.61999C14.3291 9.78877 13.3078 9.89664 12.4116 9.89664C11.5154 9.89664 10.4941 9.78877 9.44858 9.61999ZM16.85 9.34745C16.5165 7.32254 15.9825 5.29364 15.5972 3.95961C17.7792 4.76007 19.577 6.36006 20.6341 8.40501C19.6477 8.68896 18.2896 9.05091 16.85 9.34745ZM17.0551 10.8366C18.6632 10.5093 20.1728 10.1018 21.215 9.79844C21.5048 10.6949 21.6616 11.6519 21.6616 12.6466C21.6616 13.1537 21.6209 13.6508 21.5426 14.135C20.6359 14.4135 18.8702 14.9264 16.9453 15.3277C17.0773 14.4059 17.1616 13.489 17.1616 12.6466C17.1616 12.0693 17.1221 11.4583 17.0551 10.8366ZM16.6767 16.9117C18.3638 16.5853 19.9764 16.1563 21.0987 15.8322C20.1648 18.3779 18.1429 20.3998 15.5972 21.3337C15.9213 20.2114 16.3503 18.5988 16.6767 16.9117ZM15.0927 17.1803C14.6914 19.1052 14.1785 20.8709 13.8999 21.7776C13.4158 21.8559 12.9187 21.8966 12.4116 21.8966C11.9045 21.8966 11.4074 21.8559 10.9233 21.7776C10.6448 20.871 10.1319 19.1052 9.73055 17.1803C10.6523 17.3123 11.5692 17.3966 12.4116 17.3966C13.254 17.3966 14.1709 17.3123 15.0927 17.1803ZM8.14657 16.9117C8.47292 18.5988 8.90193 20.2114 9.22607 21.3337C6.68035 20.3998 4.65845 18.3779 3.72458 15.8322C4.84683 16.1563 6.45946 16.5853 8.14657 16.9117ZM7.87796 15.3277C5.95303 14.9264 4.1873 14.4135 3.28061 14.135C3.20236 13.6508 3.16162 13.1537 3.16162 12.6466C3.16162 11.6519 3.31839 10.6949 3.6082 9.79844C4.6504 10.1018 6.16008 10.5093 7.76816 10.8366C7.70119 11.4583 7.66162 12.0693 7.66162 12.6466C7.66162 13.489 7.74593 14.4059 7.87796 15.3277ZM7.97328 9.34745C6.53366 9.05091 5.1755 8.68896 4.1891 8.40501C5.24629 6.36006 7.04409 4.76007 9.22605 3.95961C8.84073 5.29364 8.30671 7.32254 7.97328 9.34745ZM9.16162 12.6466C9.16162 12.1658 9.19271 11.6475 9.248 11.107C10.3308 11.2804 11.4228 11.3966 12.4116 11.3966C13.4005 11.3966 14.4925 11.2804 15.5752 11.107C15.6305 11.6475 15.6616 12.1658 15.6616 12.6466C15.6616 13.5448 15.5533 14.5692 15.3835 15.6186C14.3342 15.7883 13.3098 15.8966 12.4116 15.8966C11.5135 15.8966 10.489 15.7883 9.4397 15.6186C9.26998 14.5692 9.16162 13.5448 9.16162 12.6466ZM12.4116 1.89664C11.6499 1.89664 10.906 1.97597 10.1878 2.12709C6.66898 2.86752 3.78648 5.32653 2.45591 8.58425C1.9436 9.83856 1.66162 11.2106 1.66162 12.6466C1.66162 13.4083 1.74096 14.1523 1.89207 14.8705C2.76597 19.0236 6.03467 22.2923 10.1878 23.1662C10.906 23.3173 11.6499 23.3966 12.4116 23.3966C13.1733 23.3966 13.9173 23.3173 14.6355 23.1662C18.7886 22.2923 22.0573 19.0236 22.9312 14.8705C23.0823 14.1523 23.1616 13.4083 23.1616 12.6466C23.1616 11.2117 22.8801 9.84071 22.3685 8.58718C21.0385 5.32801 18.1553 2.86774 14.6355 2.12709C13.9173 1.97597 13.1733 1.89664 12.4116 1.89664Z" fill="#272A2D"/>
</svg>
