<svg width="143" height="30" viewBox="0 0 143 30" fill="none" xmlns="http://www.w3.org/2000/svg">
<g clip-path="url(#clip0_2_30)">
<path d="M13.25 27C5.93206 27 3.05176e-05 21.068 3.05176e-05 13.75V4.475C3.05176e-05 3.42076 0.418823 2.40971 1.16428 1.66425C1.90974 0.918793 2.9208 0.5 3.97503 0.5H12.5875V6.31277C12.5875 7.6391 12.5067 9.01312 11.8111 10.142C11.3131 10.951 10.6469 11.6435 9.85767 12.1724C9.06849 12.7013 8.17479 13.0543 7.23718 13.2074L6.98344 13.2485C6.87884 13.2842 6.78803 13.3518 6.72373 13.4417C6.65944 13.5317 6.62486 13.6395 6.62486 13.75C6.62486 13.8605 6.65944 13.9683 6.72373 14.0583C6.78803 14.1482 6.87884 14.2158 6.98344 14.2515L7.23718 14.2926C8.60712 14.5164 9.87216 15.1648 10.8537 16.1463C11.8352 17.1279 12.4837 18.3929 12.7074 19.7628L12.7485 20.0166C12.7843 20.1212 12.8518 20.212 12.9418 20.2763C13.0317 20.3406 13.1395 20.3752 13.25 20.3752C13.3606 20.3752 13.4684 20.3406 13.5583 20.2763C13.6482 20.212 13.7158 20.1212 13.7515 20.0166L13.7926 19.7628C13.9457 18.8252 14.2987 17.9315 14.8276 17.1423C15.3565 16.3531 16.049 15.6869 16.858 15.189C17.9869 14.4933 19.3609 14.4125 20.6873 14.4125H26.4841C26.1376 21.4224 20.3454 27 13.25 27Z" fill="#F07CF2"/>
<path d="M26.5 13.0875H20.6872C19.3609 13.0875 17.9869 13.0067 16.858 12.311C15.9755 11.7673 15.2327 11.0245 14.689 10.142C13.9933 9.01312 13.9125 7.6391 13.9125 6.31277V0.5H22.525C23.5792 0.5 24.5903 0.918793 25.3357 1.66425C26.0812 2.40971 26.5 3.42076 26.5 4.475V13.0875ZM0 25.675C0 25.3236 0.139595 24.9866 0.388083 24.7381C0.636568 24.4896 0.973587 24.35 1.325 24.35C1.67641 24.35 2.01343 24.4896 2.26192 24.7381C2.5104 24.9866 2.65 25.3236 2.65 25.675C2.65 26.0264 2.5104 26.3634 2.26192 26.6119C2.01343 26.8604 1.67641 27 1.325 27C0.973587 27 0.636568 26.8604 0.388083 26.6119C0.139595 26.3634 0 26.0264 0 25.675Z" fill="white"/>
</g>
<path d="M44.6043 23.75V5.87H47.8683V20.87H55.5243V23.75H44.6043ZM63.5155 24.038C62.2355 24.038 61.0675 23.742 60.0115 23.15C58.9715 22.558 58.1395 21.75 57.5155 20.726C56.9075 19.702 56.6035 18.534 56.6035 17.222C56.6035 15.91 56.9075 14.742 57.5155 13.718C58.1395 12.694 58.9715 11.886 60.0115 11.294C61.0515 10.702 62.2195 10.406 63.5155 10.406C64.7955 10.406 65.9555 10.702 66.9955 11.294C68.0355 11.886 68.8595 12.694 69.4675 13.718C70.0915 14.726 70.4035 15.894 70.4035 17.222C70.4035 18.534 70.0915 19.702 69.4675 20.726C68.8435 21.75 68.0115 22.558 66.9715 23.15C65.9315 23.742 64.7795 24.038 63.5155 24.038ZM63.5155 21.158C64.2195 21.158 64.8355 20.99 65.3635 20.654C65.9075 20.318 66.3315 19.854 66.6355 19.262C66.9555 18.654 67.1155 17.974 67.1155 17.222C67.1155 16.454 66.9555 15.782 66.6355 15.206C66.3315 14.614 65.9075 14.15 65.3635 13.814C64.8355 13.462 64.2195 13.286 63.5155 13.286C62.7955 13.286 62.1635 13.462 61.6195 13.814C61.0755 14.15 60.6435 14.614 60.3235 15.206C60.0195 15.782 59.8675 16.454 59.8675 17.222C59.8675 17.974 60.0195 18.654 60.3235 19.262C60.6435 19.854 61.0755 20.318 61.6195 20.654C62.1635 20.99 62.7955 21.158 63.5155 21.158ZM73.8974 29.054C73.5454 29.054 73.2014 29.022 72.8654 28.958C72.5294 28.91 72.2254 28.822 71.9534 28.694V26.054C72.1614 26.102 72.4094 26.15 72.6974 26.198C73.0014 26.246 73.2814 26.27 73.5374 26.27C74.2574 26.27 74.7774 26.102 75.0974 25.766C75.4334 25.43 75.7294 24.99 75.9854 24.446L76.8494 22.43L76.8014 25.07L71.1134 10.694H74.4974L78.4814 21.302H77.2814L81.2414 10.694H84.6494L78.9614 25.07C78.6254 25.918 78.2174 26.638 77.7374 27.23C77.2574 27.822 76.6974 28.27 76.0574 28.574C75.4334 28.894 74.7134 29.054 73.8974 29.054ZM89.6271 24.038C88.7151 24.038 87.9231 23.886 87.2511 23.582C86.5791 23.278 86.0591 22.846 85.6911 22.286C85.3231 21.71 85.1391 21.046 85.1391 20.294C85.1391 19.574 85.2991 18.934 85.6191 18.374C85.9391 17.798 86.4351 17.318 87.1071 16.934C87.7791 16.55 88.6271 16.278 89.6511 16.118L93.9231 15.422V17.822L90.2511 18.446C89.6271 18.558 89.1631 18.758 88.8591 19.046C88.5551 19.334 88.4031 19.71 88.4031 20.174C88.4031 20.622 88.5711 20.982 88.9071 21.254C89.2591 21.51 89.6911 21.638 90.2031 21.638C90.8591 21.638 91.4351 21.502 91.9311 21.23C92.4431 20.942 92.8351 20.55 93.1071 20.054C93.3951 19.558 93.5391 19.014 93.5391 18.422V15.062C93.5391 14.502 93.3151 14.038 92.8671 13.67C92.4351 13.286 91.8591 13.094 91.1391 13.094C90.4671 13.094 89.8671 13.278 89.3391 13.646C88.8271 13.998 88.4511 14.47 88.2111 15.062L85.6431 13.814C85.8991 13.126 86.2991 12.534 86.8431 12.038C87.4031 11.526 88.0591 11.126 88.8111 10.838C89.5631 10.55 90.3791 10.406 91.2591 10.406C92.3311 10.406 93.2751 10.606 94.0911 11.006C94.9071 11.39 95.5391 11.934 95.9871 12.638C96.4511 13.326 96.6831 14.134 96.6831 15.062V23.75H93.7071V21.518L94.3791 21.47C94.0431 22.03 93.6431 22.502 93.1791 22.886C92.7151 23.254 92.1871 23.542 91.5951 23.75C91.0031 23.942 90.3471 24.038 89.6271 24.038ZM104.005 24.038C102.997 24.038 102.117 23.814 101.365 23.366C100.629 22.918 100.061 22.294 99.661 21.494C99.277 20.694 99.085 19.758 99.085 18.686V10.694H102.229V18.422C102.229 18.966 102.333 19.446 102.541 19.862C102.765 20.262 103.077 20.582 103.477 20.822C103.893 21.046 104.357 21.158 104.869 21.158C105.381 21.158 105.837 21.046 106.237 20.822C106.637 20.582 106.949 20.254 107.173 19.838C107.397 19.422 107.509 18.926 107.509 18.35V10.694H110.653V23.75H107.677V21.182L107.941 21.638C107.637 22.438 107.133 23.038 106.429 23.438C105.741 23.838 104.933 24.038 104.005 24.038ZM119.288 23.894C117.816 23.894 116.672 23.494 115.856 22.694C115.056 21.878 114.656 20.734 114.656 19.262V13.502H112.4V10.694H112.64C113.28 10.694 113.776 10.526 114.128 10.19C114.48 9.854 114.656 9.366 114.656 8.726V7.718H117.8V10.694H120.8V13.502H117.8V19.094C117.8 19.526 117.872 19.894 118.016 20.198C118.176 20.502 118.416 20.734 118.736 20.894C119.072 21.054 119.496 21.134 120.008 21.134C120.12 21.134 120.248 21.126 120.392 21.11C120.552 21.094 120.704 21.078 120.848 21.062V23.75C120.624 23.782 120.368 23.814 120.08 23.846C119.792 23.878 119.528 23.894 119.288 23.894ZM129.084 24.038C127.74 24.038 126.564 23.734 125.556 23.126C124.548 22.518 123.764 21.694 123.204 20.654C122.644 19.614 122.364 18.462 122.364 17.198C122.364 15.886 122.644 14.726 123.204 13.718C123.78 12.694 124.556 11.886 125.532 11.294C126.524 10.702 127.628 10.406 128.844 10.406C129.868 10.406 130.764 10.574 131.532 10.91C132.316 11.246 132.98 11.71 133.524 12.302C134.068 12.894 134.484 13.574 134.772 14.342C135.06 15.094 135.204 15.91 135.204 16.79C135.204 17.014 135.188 17.246 135.156 17.486C135.14 17.726 135.1 17.934 135.036 18.11H124.956V15.71H133.26L131.772 16.838C131.916 16.102 131.876 15.446 131.652 14.87C131.444 14.294 131.092 13.838 130.596 13.502C130.116 13.166 129.532 12.998 128.844 12.998C128.188 12.998 127.604 13.166 127.092 13.502C126.58 13.822 126.188 14.302 125.916 14.942C125.66 15.566 125.564 16.326 125.628 17.222C125.564 18.022 125.668 18.734 125.94 19.358C126.228 19.966 126.644 20.438 127.188 20.774C127.748 21.11 128.388 21.278 129.108 21.278C129.828 21.278 130.436 21.126 130.932 20.822C131.444 20.518 131.844 20.11 132.132 19.598L134.676 20.846C134.42 21.47 134.02 22.022 133.476 22.502C132.932 22.982 132.284 23.358 131.532 23.63C130.796 23.902 129.98 24.038 129.084 24.038ZM127.236 8.39L128.796 4.238H132.876L130.332 8.39H127.236Z" fill="white"/>
<defs>
<clipPath id="clip0_2_30">
<rect width="26.5" height="26.5" fill="white" transform="matrix(-1 0 0 -1 26.5 27)"/>
</clipPath>
</defs>
</svg>
