<svg width="20" height="20" viewBox="0 0 20 20" fill="none" xmlns="http://www.w3.org/2000/svg">
<g clip-path="url(#clip0_22_1595)">
<path d="M10 20C4.47704 20 3.62396e-05 15.523 3.62396e-05 10V3C3.62396e-05 2.20435 0.316107 1.44129 0.878716 0.878679C1.44132 0.316071 2.20439 0 3.00004 0H9.50004V4.387C9.50004 5.388 9.43904 6.425 8.91404 7.277C8.53817 7.88758 8.03538 8.41019 7.43977 8.80936C6.84416 9.20853 6.16966 9.47493 5.46204 9.5905L5.27054 9.6215C5.19159 9.64849 5.12305 9.69948 5.07453 9.76735C5.026 9.83522 4.99991 9.91657 4.99991 10C4.99991 10.0834 5.026 10.1648 5.07453 10.2326C5.12305 10.3005 5.19159 10.3515 5.27054 10.3785L5.46204 10.4095C6.49595 10.5784 7.4507 11.0678 8.19148 11.8086C8.93226 12.5493 9.42164 13.5041 9.59054 14.538L9.62154 14.7295C9.64852 14.8084 9.69952 14.877 9.76739 14.9255C9.83526 14.974 9.9166 15.0001 10 15.0001C10.0835 15.0001 10.1648 14.974 10.2327 14.9255C10.3006 14.877 10.3516 14.8084 10.3785 14.7295L10.4095 14.538C10.5251 13.8304 10.7915 13.1559 11.1906 12.5602C11.5898 11.9646 12.1124 11.4618 12.723 11.086C13.575 10.561 14.612 10.5 15.613 10.5H19.988C19.7265 15.7905 15.355 20 10 20Z" fill="white"/>
<path d="M20 9.5H15.613C14.612 9.5 13.575 9.439 12.723 8.914C12.057 8.50362 11.4964 7.94299 11.086 7.277C10.561 6.425 10.5 5.388 10.5 4.387V0H17C17.7956 0 18.5587 0.316071 19.1213 0.878679C19.6839 1.44129 20 2.20435 20 3V9.5ZM0 19C0 18.7348 0.105356 18.4804 0.292892 18.2929C0.480429 18.1054 0.734783 18 1 18C1.26522 18 1.51957 18.1054 1.70711 18.2929C1.89464 18.4804 2 18.7348 2 19C2 19.2652 1.89464 19.5196 1.70711 19.7071C1.51957 19.8946 1.26522 20 1 20C0.734783 20 0.480429 19.8946 0.292892 19.7071C0.105356 19.5196 0 19.2652 0 19Z" fill="white"/>
</g>
<defs>
<clipPath id="clip0_22_1595">
<rect width="20" height="20" fill="white" transform="matrix(-1 0 0 -1 20 20)"/>
</clipPath>
</defs>
</svg>
