<svg width="25" height="25" viewBox="0 0 25 25" fill="none" xmlns="http://www.w3.org/2000/svg">
<path d="M8.41162 7.36728C7.99741 7.36728 7.66162 7.70307 7.66162 8.11728C7.66162 8.53149 7.99741 8.86728 8.41162 8.86728H16.4116C16.8258 8.86728 17.1616 8.53149 17.1616 8.11728C17.1616 7.70307 16.8258 7.36728 16.4116 7.36728H8.41162Z" fill="#272A2D"/>
<path d="M8.41162 11.3673C7.99741 11.3673 7.66162 11.7031 7.66162 12.1173C7.66162 12.5315 7.99741 12.8673 8.41162 12.8673H16.4116C16.8258 12.8673 17.1616 12.5315 17.1616 12.1173C17.1616 11.7031 16.8258 11.3673 16.4116 11.3673H8.41162Z" fill="#007DFB"/>
<path d="M8.41162 15.3673C7.99741 15.3673 7.66162 15.7031 7.66162 16.1173C7.66162 16.5315 7.99741 16.8673 8.41162 16.8673H11.4116C11.8258 16.8673 12.1616 16.5315 12.1616 16.1173C12.1616 15.7031 11.8258 15.3673 11.4116 15.3673H8.41162Z" fill="#007DFB"/>
<path fill-rule="evenodd" clip-rule="evenodd" d="M16.8751 1.49101C15.733 1.36726 14.2934 1.36727 12.4569 1.36728H12.3664C10.5298 1.36727 9.09023 1.36726 7.9481 1.49101C6.78256 1.61729 5.83818 1.8796 5.03186 2.46543C4.54371 2.82009 4.11443 3.24937 3.75977 3.73751C3.17395 4.54384 2.91163 5.48822 2.78535 6.65376C2.66161 7.79589 2.66161 9.23549 2.66162 11.072V13.1625C2.66161 14.9991 2.66161 16.4387 2.78535 17.5808C2.91163 18.7463 3.17395 19.6907 3.75977 20.497C4.11443 20.9852 4.54371 21.4145 5.03186 21.7691C5.83818 22.355 6.78256 22.6173 7.9481 22.7436C9.09021 22.8673 10.5298 22.8673 12.3663 22.8673H12.4569C14.2934 22.8673 15.733 22.8673 16.8751 22.7436C18.0407 22.6173 18.9851 22.355 19.7914 21.7691C20.2795 21.4145 20.7088 20.9852 21.0635 20.497C21.6493 19.6907 21.9116 18.7463 22.0379 17.5808C22.1616 16.4387 22.1616 14.9991 22.1616 13.1626V11.072C22.1616 9.23552 22.1616 7.79587 22.0379 6.65376C21.9116 5.48822 21.6493 4.54384 21.0635 3.73751C20.7088 3.24937 20.2795 2.82009 19.7914 2.46543C18.9851 1.8796 18.0407 1.61729 16.8751 1.49101ZM5.91353 3.67896C6.42154 3.30987 7.07175 3.09473 8.10967 2.98228C9.16161 2.86831 10.52 2.86728 12.4116 2.86728C14.3032 2.86728 15.6616 2.86831 16.7136 2.98228C17.7515 3.09473 18.4017 3.30987 18.9097 3.67896C19.2705 3.9411 19.5878 4.25839 19.8499 4.61919C20.219 5.1272 20.4342 5.77741 20.5466 6.81532C20.6606 7.86727 20.6616 9.22571 20.6616 11.1173V13.1173C20.6616 15.0089 20.6606 16.3673 20.5466 17.4192C20.4342 18.4571 20.219 19.1074 19.8499 19.6154C19.5878 19.9762 19.2705 20.2935 18.9097 20.5556C18.4017 20.9247 17.7515 21.1398 16.7136 21.2523C15.6616 21.3662 14.3032 21.3673 12.4116 21.3673C10.52 21.3673 9.16161 21.3662 8.10967 21.2523C7.07175 21.1398 6.42154 20.9247 5.91353 20.5556C5.55273 20.2935 5.23544 19.9762 4.9733 19.6154C4.60421 19.1074 4.38907 18.4571 4.27662 17.4192C4.16265 16.3673 4.16162 15.0089 4.16162 13.1173V11.1173C4.16162 9.22571 4.16265 7.86727 4.27662 6.81532C4.38907 5.77741 4.60421 5.1272 4.9733 4.61919C5.23544 4.25839 5.55273 3.9411 5.91353 3.67896Z" fill="#272A2D"/>
</svg>
