<svg width="24" height="25" viewBox="0 0 24 25" fill="none" xmlns="http://www.w3.org/2000/svg">
<path fill-rule="evenodd" clip-rule="evenodd" d="M12 2.01526C9.37665 2.01526 7.25 4.14191 7.25 6.76526C7.25 9.38861 9.37665 11.5153 12 11.5153C14.6234 11.5153 16.75 9.38861 16.75 6.76526C16.75 4.14191 14.6234 2.01526 12 2.01526ZM8.75 6.76526C8.75 4.97033 10.2051 3.51526 12 3.51526C13.7949 3.51526 15.25 4.97033 15.25 6.76526C15.25 8.56018 13.7949 10.0153 12 10.0153C10.2051 10.0153 8.75 8.56018 8.75 6.76526Z" fill="#272A2D"/>
<path fill-rule="evenodd" clip-rule="evenodd" d="M9 13.0153C6.37665 13.0153 4.25 15.1419 4.25 17.7653C4.25 20.3886 6.37665 22.5153 9 22.5153H15C17.6234 22.5153 19.75 20.3886 19.75 17.7653C19.75 15.1419 17.6234 13.0153 15 13.0153H9ZM5.75 17.7653C5.75 15.9703 7.20507 14.5153 9 14.5153H15C16.7949 14.5153 18.25 15.9703 18.25 17.7653C18.25 19.5602 16.7949 21.0153 15 21.0153H9C7.20507 21.0153 5.75 19.5602 5.75 17.7653Z" fill="#0074E0"/>
</svg>
