<svg width="15" height="16" viewBox="0 0 15 16" fill="none" xmlns="http://www.w3.org/2000/svg">
<g clip-path="url(#clip0_22_2774)">
<rect y="0.745056" width="15.0004" height="15" rx="7.5" fill="white"/>
<path d="M7.5 15.7451C3.35775 15.7451 0 12.3873 0 8.24506V2.99506C0 2.39832 0.237053 1.82602 0.65901 1.40407C1.08097 0.982109 1.65326 0.745056 2.25 0.745056H7.125V4.03531C7.125 4.78606 7.07925 5.56381 6.6855 6.20281C6.4036 6.66074 6.0265 7.0527 5.5798 7.35207C5.13309 7.65145 4.62722 7.85126 4.0965 7.93793L3.95288 7.96118C3.89366 7.98142 3.84226 8.01967 3.80587 8.07057C3.76947 8.12147 3.74991 8.18248 3.74991 8.24506C3.74991 8.30763 3.76947 8.36864 3.80587 8.41954C3.84226 8.47044 3.89366 8.50869 3.95288 8.52893L4.0965 8.55218C4.87194 8.67885 5.588 9.04589 6.14358 9.60148C6.69917 10.1571 7.06621 10.8731 7.19288 11.6486L7.21613 11.7922C7.23637 11.8514 7.27461 11.9028 7.32552 11.9392C7.37642 11.9756 7.43743 11.9951 7.5 11.9951C7.56258 11.9951 7.62359 11.9756 7.67449 11.9392C7.72539 11.9028 7.76364 11.8514 7.78388 11.7922L7.80713 11.6486C7.89378 11.1178 8.09357 10.6119 8.39295 10.1652C8.69233 9.71853 9.0843 9.34144 9.54225 9.05956C10.1813 8.66581 10.959 8.62006 11.7098 8.62006H14.991C14.7949 12.5879 11.5163 15.7451 7.5 15.7451Z" fill="#FECE25"/>
<path d="M15.0004 7.87006H11.7101C10.9594 7.87006 10.1816 7.82431 9.54264 7.43056C9.04315 7.12277 8.62267 6.7023 8.31489 6.20281C7.92114 5.56381 7.87539 4.78606 7.87539 4.03531V0.74506H12.7504C13.3471 0.74506 13.9194 0.982113 14.3414 1.40407C14.7633 1.82603 15.0004 2.39832 15.0004 2.99506V7.87006Z" fill="#FECE25"/>
</g>
<rect x="0.5" y="1.24506" width="14.0004" height="14" rx="7" stroke="#FBE8A6"/>
<defs>
<clipPath id="clip0_22_2774">
<rect y="0.745056" width="15.0004" height="15" rx="7.5" fill="white"/>
</clipPath>
</defs>
</svg>
