<svg width="25" height="24" viewBox="0 0 25 24" fill="none" xmlns="http://www.w3.org/2000/svg">
<path d="M14.9167 3C14.9167 2.58579 15.2525 2.25 15.6667 2.25L16.6667 2.25C19.8424 2.25 22.4167 4.82436 22.4167 8V9C22.4167 9.41421 22.081 9.75 21.6667 9.75C21.2525 9.75 20.9167 9.41421 20.9167 9V8C20.9167 5.65279 19.014 3.75 16.6667 3.75H15.6667C15.2525 3.75 14.9167 3.41421 14.9167 3Z" fill="white"/>
<path d="M2.91675 8C2.91675 4.82436 5.49111 2.25 8.66675 2.25H9.66675C10.081 2.25 10.4167 2.58579 10.4167 3C10.4167 3.41421 10.081 3.75 9.66675 3.75H8.66675C6.31954 3.75 4.41675 5.65279 4.41675 8V9C4.41675 9.41421 4.08096 9.75 3.66675 9.75C3.25253 9.75 2.91675 9.41421 2.91675 9V8Z" fill="white"/>
<path fill-rule="evenodd" clip-rule="evenodd" d="M8.622 5.25C8.63687 5.25 8.65179 5.25 8.66675 5.25C8.68171 5.25 8.69662 5.25 8.7115 5.25C9.14431 5.24995 9.54114 5.2499 9.86396 5.2933C10.2194 5.34109 10.5952 5.45354 10.9042 5.76256C11.2132 6.07159 11.3257 6.44731 11.3734 6.80279C11.4169 7.1256 11.4168 7.52244 11.4168 7.95526C11.4167 7.97013 11.4167 7.98504 11.4167 8C11.4167 8.01496 11.4167 8.02987 11.4168 8.04474C11.4168 8.47756 11.4169 8.8744 11.3734 9.19721C11.3257 9.55269 11.2132 9.92841 10.9042 10.2374C10.5952 10.5465 10.2194 10.6589 9.86396 10.7067C9.54114 10.7501 9.14431 10.7501 8.71149 10.75C8.69662 10.75 8.6817 10.75 8.66675 10.75C8.65179 10.75 8.63688 10.75 8.622 10.75C8.18919 10.7501 7.79235 10.7501 7.46954 10.7067C7.11406 10.6589 6.73833 10.5465 6.42931 10.2374C6.12029 9.92841 6.00784 9.55269 5.96005 9.19721C5.91665 8.8744 5.91669 8.47757 5.91674 8.04475C5.91675 8.02988 5.91675 8.01496 5.91675 8C5.91675 7.98504 5.91675 7.97013 5.91674 7.95525C5.91669 7.52244 5.91665 7.1256 5.96005 6.80279C6.00784 6.44731 6.12029 6.07159 6.42931 5.76256C6.73833 5.45354 7.11406 5.34109 7.46954 5.2933C7.79235 5.2499 8.18918 5.24995 8.622 5.25ZM7.4901 6.82307C7.49007 6.82311 7.49024 6.82289 7.4901 6.82307V6.82307ZM7.49242 6.82186L7.4901 6.82307L7.48861 6.82567C7.4876 6.8276 7.48598 6.83092 7.48391 6.83596C7.47495 6.85774 7.45965 6.90611 7.44667 7.00266C7.41834 7.21339 7.41675 7.50739 7.41675 8C7.41675 8.49261 7.41834 8.78661 7.44667 8.99734C7.45965 9.09389 7.47495 9.14226 7.48391 9.16404C7.48598 9.16908 7.4876 9.1724 7.48861 9.17433L7.48999 9.17676L7.49242 9.17814C7.49435 9.17915 7.49767 9.18077 7.50271 9.18284C7.52449 9.1918 7.57285 9.20709 7.66941 9.22008C7.88014 9.24841 8.17414 9.25 8.66675 9.25C9.15936 9.25 9.45336 9.24841 9.66408 9.22008C9.76064 9.20709 9.809 9.1918 9.83078 9.18284C9.83583 9.18077 9.83914 9.17915 9.84108 9.17814L9.84351 9.17676L9.84489 9.17433C9.8459 9.1724 9.84751 9.16908 9.84959 9.16404C9.85855 9.14226 9.87384 9.09389 9.88682 8.99734C9.91516 8.78661 9.91675 8.49261 9.91675 8C9.91675 7.50739 9.91516 7.21339 9.88682 7.00266C9.87384 6.90611 9.85855 6.85774 9.84959 6.83596C9.84751 6.83092 9.8459 6.8276 9.84489 6.82567L9.84351 6.82324L9.84108 6.82186C9.83914 6.82085 9.83583 6.81923 9.83078 6.81716C9.809 6.8082 9.76064 6.79291 9.66408 6.77992C9.45336 6.75159 9.15936 6.75 8.66675 6.75C8.17414 6.75 7.88014 6.75159 7.66941 6.77992C7.57285 6.79291 7.52449 6.8082 7.50271 6.81716C7.49767 6.81923 7.49435 6.82085 7.49242 6.82186ZM7.48999 9.17676C7.48958 9.17636 7.48972 9.17643 7.48999 9.17676V9.17676ZM9.84351 9.17676C9.84347 9.17679 9.84369 9.17662 9.84351 9.17676V9.17676Z" fill="white"/>
<path fill-rule="evenodd" clip-rule="evenodd" d="M8.622 13.25C8.63688 13.25 8.65179 13.25 8.66675 13.25C8.6817 13.25 8.69662 13.25 8.71149 13.25C9.14431 13.2499 9.54114 13.2499 9.86396 13.2933C10.2194 13.3411 10.5952 13.4535 10.9042 13.7626C11.2132 14.0716 11.3257 14.4473 11.3734 14.8028C11.4169 15.1256 11.4168 15.5224 11.4168 15.9553V16.0447C11.4168 16.4776 11.4169 16.8744 11.3734 17.1972C11.3257 17.5527 11.2132 17.9284 10.9042 18.2374C10.5952 18.5465 10.2194 18.6589 9.86396 18.7067C9.54114 18.7501 9.14431 18.7501 8.71149 18.75H8.622C8.18919 18.7501 7.79235 18.7501 7.46954 18.7067C7.11406 18.6589 6.73833 18.5465 6.42931 18.2374C6.12029 17.9284 6.00784 17.5527 5.96005 17.1972C5.91665 16.8744 5.91669 16.4776 5.91674 16.0448V15.9552C5.91669 15.5224 5.91665 15.1256 5.96005 14.8028C6.00784 14.4473 6.12029 14.0716 6.42931 13.7626C6.73833 13.4535 7.11406 13.3411 7.46954 13.2933C7.79235 13.2499 8.18919 13.2499 8.622 13.25ZM7.49242 14.8219L7.48998 14.8232L7.48861 14.8257C7.4876 14.8276 7.48598 14.8309 7.48391 14.836C7.47495 14.8577 7.45965 14.9061 7.44667 15.0027C7.41834 15.2134 7.41675 15.5074 7.41675 16C7.41675 16.4926 7.41834 16.7866 7.44667 16.9973C7.45965 17.0939 7.47495 17.1423 7.48391 17.164C7.48598 17.1691 7.4876 17.1724 7.48861 17.1743L7.48998 17.1768L7.49242 17.1781C7.49435 17.1791 7.49767 17.1808 7.50271 17.1828C7.52449 17.1918 7.57285 17.2071 7.66941 17.2201C7.88014 17.2484 8.17414 17.25 8.66675 17.25C9.15936 17.25 9.45336 17.2484 9.66408 17.2201C9.76064 17.2071 9.809 17.1918 9.83078 17.1828C9.8328 17.182 9.83454 17.1813 9.83602 17.1806C9.83826 17.1796 9.83992 17.1787 9.84108 17.1781L9.84351 17.1768L9.84489 17.1743C9.8459 17.1724 9.84751 17.1691 9.84959 17.164C9.85855 17.1423 9.87384 17.0939 9.88682 16.9973C9.91516 16.7866 9.91675 16.4926 9.91675 16C9.91675 15.5074 9.91516 15.2134 9.88682 15.0027C9.87384 14.9061 9.85855 14.8577 9.84959 14.836C9.84751 14.8309 9.8459 14.8276 9.84489 14.8257L9.84351 14.8232L9.84108 14.8219C9.83914 14.8209 9.83583 14.8192 9.83078 14.8172C9.809 14.8082 9.76064 14.7929 9.66408 14.7799C9.45336 14.7516 9.15936 14.75 8.66675 14.75C8.17414 14.75 7.88014 14.7516 7.66941 14.7799C7.57285 14.7929 7.52449 14.8082 7.50271 14.8172C7.49767 14.8192 7.49435 14.8209 7.49242 14.8219ZM7.48998 17.1768C7.48958 17.1764 7.48972 17.1764 7.48998 17.1768C7.49033 17.177 7.49044 17.1772 7.48998 17.1768Z" fill="white"/>
<path fill-rule="evenodd" clip-rule="evenodd" d="M16.622 13.25H16.7115C17.1443 13.2499 17.5411 13.2499 17.864 13.2933C18.2194 13.3411 18.5952 13.4535 18.9042 13.7626C19.2132 14.0716 19.3257 14.4473 19.3734 14.8028C19.4168 15.1256 19.4168 15.5224 19.4168 15.9553V16.0447C19.4168 16.4776 19.4168 16.8744 19.3734 17.1972C19.3257 17.5527 19.2132 17.9284 18.9042 18.2374C18.5952 18.5465 18.2194 18.6589 17.864 18.7067C17.5411 18.7501 17.1443 18.7501 16.7115 18.75H16.622C16.1892 18.7501 15.7924 18.7501 15.4695 18.7067C15.1141 18.6589 14.7383 18.5465 14.4293 18.2374C14.1203 17.9284 14.0078 17.5527 13.96 17.1972C13.9166 16.8744 13.9167 16.4776 13.9167 16.0447V15.9553C13.9167 15.5224 13.9166 15.1256 13.96 14.8028C14.0078 14.4473 14.1203 14.0716 14.4293 13.7626C14.7383 13.4535 15.1141 13.3411 15.4695 13.2933C15.7924 13.2499 16.1892 13.2499 16.622 13.25ZM15.49 14.8232C15.4904 14.8229 15.4904 14.8228 15.49 14.8232C15.4896 14.8236 15.4897 14.8235 15.49 14.8232ZM15.4924 14.8219L15.49 14.8232L15.4886 14.8257C15.4876 14.8276 15.486 14.8309 15.4839 14.836C15.4749 14.8577 15.4597 14.9061 15.4467 15.0027C15.4183 15.2134 15.4167 15.5074 15.4167 16C15.4167 16.4926 15.4183 16.7866 15.4467 16.9973C15.4597 17.0939 15.4749 17.1423 15.4839 17.164C15.486 17.1691 15.4876 17.1724 15.4886 17.1743L15.49 17.1768L15.4924 17.1781C15.4944 17.1791 15.4977 17.1808 15.5027 17.1828C15.5245 17.1918 15.5729 17.2071 15.6694 17.2201C15.8801 17.2484 16.1741 17.25 16.6667 17.25C17.1594 17.25 17.4534 17.2484 17.6641 17.2201C17.7606 17.2071 17.809 17.1918 17.8308 17.1828C17.8318 17.1824 17.8327 17.182 17.8336 17.1817C17.8371 17.1801 17.8395 17.1789 17.8411 17.1781L17.8435 17.1768L17.8449 17.1743C17.8459 17.1724 17.8475 17.1691 17.8496 17.164C17.8586 17.1423 17.8738 17.0939 17.8868 16.9973C17.9152 16.7866 17.9167 16.4926 17.9167 16C17.9167 15.5074 17.9152 15.2134 17.8868 15.0027C17.8738 14.9061 17.8586 14.8577 17.8496 14.836C17.8475 14.8309 17.8459 14.8276 17.8449 14.8257L17.8435 14.8232L17.8411 14.8219C17.8391 14.8209 17.8358 14.8192 17.8308 14.8172C17.809 14.8082 17.7606 14.7929 17.6641 14.7799C17.4534 14.7516 17.1594 14.75 16.6667 14.75C16.1741 14.75 15.8801 14.7516 15.6694 14.7799C15.5729 14.7929 15.5245 14.8082 15.5027 14.8172C15.4977 14.8192 15.4944 14.8209 15.4924 14.8219Z" fill="white"/>
<path d="M3.66675 14.25C4.08096 14.25 4.41675 14.5858 4.41675 15V16C4.41675 18.3472 6.31954 20.25 8.66675 20.25H9.66675C10.081 20.25 10.4167 20.5858 10.4167 21C10.4167 21.4142 10.081 21.75 9.66675 21.75H8.66675C5.49111 21.75 2.91675 19.1756 2.91675 16L2.91675 15C2.91675 14.5858 3.25253 14.25 3.66675 14.25Z" fill="white"/>
<path d="M21.6667 14.25C22.081 14.25 22.4167 14.5858 22.4167 15V16C22.4167 19.1756 19.8424 21.75 16.6667 21.75H15.6667C15.2525 21.75 14.9167 21.4142 14.9167 21C14.9167 20.5858 15.2525 20.25 15.6667 20.25H16.6667C19.014 20.25 20.9167 18.3472 20.9167 16V15C20.9167 14.5858 21.2525 14.25 21.6667 14.25Z" fill="white"/>
</svg>
