<svg width="25" height="24" viewBox="0 0 25 24" fill="none" xmlns="http://www.w3.org/2000/svg">
<path fill-rule="evenodd" clip-rule="evenodd" d="M12.4117 1.24957C9.23602 1.24957 6.66165 3.82394 6.66165 6.99957V7.52238L6.63481 7.531C4.88429 8.09978 3.51186 9.47221 2.94308 11.2227C2.66121 12.0902 2.66137 13.1315 2.66164 14.8377V15.1614C2.66137 16.8677 2.66121 17.9089 2.94308 18.7764C3.51186 20.5269 4.88429 21.8994 6.63481 22.4681C7.50232 22.75 8.54353 22.7499 10.2498 22.7496H14.5735C16.2798 22.7499 17.321 22.75 18.1885 22.4681C19.939 21.8994 21.3115 20.5269 21.8802 18.7764C22.1621 17.9089 22.1619 16.8677 22.1617 15.1614V14.8377C22.1619 13.1314 22.1621 12.0902 21.8802 11.2227C21.3115 9.47221 19.939 8.09978 18.1885 7.531L18.1617 7.52238V6.99957C18.1617 3.82394 15.5873 1.24957 12.4117 1.24957ZM10.3277 7.24957C9.44848 7.24954 8.74676 7.24951 8.16165 7.28264V6.99957C8.16165 4.65236 10.0644 2.74957 12.4117 2.74957C14.7589 2.74957 16.6617 4.65236 16.6617 6.99957V7.28264C16.0765 7.24951 15.3748 7.24954 14.4956 7.24957H10.3277ZM7.53625 8.85287C8.13385 8.75219 8.9398 8.74957 10.4117 8.74957H14.4117C15.8835 8.74957 16.6895 8.75219 17.2871 8.85287C17.4523 8.88071 17.5948 8.91529 17.725 8.95758C19.0188 9.37798 20.0332 10.3924 20.4536 11.6863C20.6524 12.298 20.6617 13.0799 20.6617 14.9996C20.6617 16.9192 20.6524 17.7012 20.4536 18.3129C20.0332 19.6068 19.0188 20.6212 17.725 21.0416C17.1133 21.2403 16.3313 21.2496 14.4117 21.2496H10.4117C8.492 21.2496 7.71004 21.2403 7.09833 21.0416C5.80447 20.6212 4.79007 19.6068 4.36966 18.3129C4.17091 17.7012 4.16165 16.9192 4.16165 14.9996C4.16165 13.0799 4.17091 12.298 4.36966 11.6863C4.79007 10.3924 5.80447 9.37798 7.09833 8.95758C7.22851 8.91529 7.371 8.88071 7.53625 8.85287Z" fill="#272A2D"/>
<path fill-rule="evenodd" clip-rule="evenodd" d="M12.4116 10.2496C10.8928 10.2496 9.66162 11.4808 9.66162 12.9996C9.66162 14.2584 10.5074 15.3196 11.6616 15.6461V18.9996C11.6616 19.4138 11.9974 19.7496 12.4116 19.7496C12.8258 19.7496 13.1616 19.4138 13.1616 18.9996V15.6461C14.3159 15.3196 15.1616 14.2584 15.1616 12.9996C15.1616 11.4808 13.9304 10.2496 12.4116 10.2496ZM11.1616 12.9996C11.1616 12.3092 11.7213 11.7496 12.4116 11.7496C13.102 11.7496 13.6616 12.3092 13.6616 12.9996C13.6616 13.6899 13.102 14.2496 12.4116 14.2496C11.7213 14.2496 11.1616 13.6899 11.1616 12.9996Z" fill="#007DFB"/>
</svg>
