<svg width="25" height="25" viewBox="0 0 25 25" fill="none" xmlns="http://www.w3.org/2000/svg">
<g clip-path="url(#clip0_31_838)">
<path fill-rule="evenodd" clip-rule="evenodd" d="M12.4116 8.54372C10.3405 8.54372 8.66157 10.2226 8.66157 12.2937C8.66157 14.3648 10.3405 16.0437 12.4116 16.0437C14.4826 16.0437 16.1616 14.3648 16.1616 12.2937C16.1616 10.2226 14.4826 8.54372 12.4116 8.54372ZM10.1616 12.2937C10.1616 11.0511 11.1689 10.0437 12.4116 10.0437C13.6542 10.0437 14.6616 11.0511 14.6616 12.2937C14.6616 13.5364 13.6542 14.5437 12.4116 14.5437C11.1689 14.5437 10.1616 13.5364 10.1616 12.2937Z" fill="#007DFB"/>
<path fill-rule="evenodd" clip-rule="evenodd" d="M15.8263 3.526C14.8459 0.0906172 9.97726 0.0906184 8.99685 3.526C8.69309 4.5904 7.59954 5.22176 6.52586 4.95263C3.06052 4.084 0.626221 8.30034 3.11114 10.8671C3.88106 11.6624 3.88106 12.9251 3.11114 13.7203C0.62622 16.2871 3.06052 20.5034 6.52586 19.6348C7.59954 19.3657 8.69309 19.997 8.99685 21.0614C9.97726 24.4968 14.8459 24.4968 15.8263 21.0614C16.13 19.997 17.2236 19.3657 18.2973 19.6348C21.7626 20.5034 24.1969 16.2871 21.712 13.7203C20.9421 12.9251 20.9421 11.6624 21.712 10.8671C24.1969 8.30034 21.7626 4.084 18.2973 4.95263C17.2236 5.22176 16.13 4.5904 15.8263 3.526ZM10.4393 3.93764C11.0055 1.9534 13.8176 1.9534 14.3839 3.93764C14.9098 5.78048 16.8031 6.87357 18.662 6.40762C20.6635 5.9059 22.0696 8.34122 20.6343 9.82375C19.3013 11.2006 19.3013 13.3868 20.6343 14.7637C22.0696 16.2462 20.6635 18.6815 18.662 18.1798C16.8031 17.7139 14.9098 18.807 14.3839 20.6498C13.8176 22.634 11.0055 22.634 10.4393 20.6498C9.91334 18.807 8.02005 17.7139 6.16115 18.1798C4.1596 18.6815 2.75358 16.2462 4.18884 14.7637C5.52182 13.3868 5.52183 11.2006 4.18884 9.82375C2.75358 8.34122 4.15961 5.9059 6.16114 6.40762C8.02005 6.87357 9.91334 5.78048 10.4393 3.93764Z" fill="#272A2D"/>
</g>
<defs>
<clipPath id="clip0_31_838">
<rect width="24" height="24" fill="white" transform="translate(0.411621 0.293732)"/>
</clipPath>
</defs>
</svg>
