<svg width="25" height="24" viewBox="0 0 25 24" fill="none" xmlns="http://www.w3.org/2000/svg">
<g clip-path="url(#clip0_22_1923)">
<path d="M15.3333 2.25C14.919 2.25 14.5833 2.58579 14.5833 3C14.5833 3.41421 14.919 3.75 15.3333 3.75H16.3333C18.6805 3.75 20.5833 5.65279 20.5833 8V9C20.5833 9.41421 20.919 9.75 21.3333 9.75C21.7475 9.75 22.0833 9.41421 22.0833 9V8C22.0833 4.82436 19.5089 2.25 16.3333 2.25H15.3333Z" fill="white"/>
<path d="M8.33325 2.25C5.15761 2.25 2.58325 4.82436 2.58325 8V9C2.58325 9.41421 2.91904 9.75 3.33325 9.75C3.74747 9.75 4.08325 9.41421 4.08325 9V8C4.08325 5.65279 5.98604 3.75 8.33325 3.75H9.33325C9.74747 3.75 10.0833 3.41421 10.0833 3C10.0833 2.58579 9.74747 2.25 9.33325 2.25H8.33325Z" fill="white"/>
<path d="M1.33325 11.25C0.919038 11.25 0.583252 11.5858 0.583252 12C0.583252 12.4142 0.919038 12.75 1.33325 12.75H23.3333C23.7475 12.75 24.0833 12.4142 24.0833 12C24.0833 11.5858 23.7475 11.25 23.3333 11.25H1.33325Z" fill="white"/>
<path d="M4.08325 15C4.08325 14.5858 3.74747 14.25 3.33325 14.25C2.91904 14.25 2.58325 14.5858 2.58325 15V16C2.58325 19.1756 5.15761 21.75 8.33325 21.75H9.33325C9.74747 21.75 10.0833 21.4142 10.0833 21C10.0833 20.5858 9.74747 20.25 9.33325 20.25H8.33325C5.98604 20.25 4.08325 18.3472 4.08325 16V15Z" fill="white"/>
<path d="M22.0833 15C22.0833 14.5858 21.7475 14.25 21.3333 14.25C20.919 14.25 20.5833 14.5858 20.5833 15V16C20.5833 18.3472 18.6805 20.25 16.3333 20.25H15.3333C14.919 20.25 14.5833 20.5858 14.5833 21C14.5833 21.4142 14.919 21.75 15.3333 21.75H16.3333C19.5089 21.75 22.0833 19.1756 22.0833 16V15Z" fill="white"/>
</g>
<defs>
<clipPath id="clip0_22_1923">
<rect width="24" height="24" fill="white" transform="translate(0.333252)"/>
</clipPath>
</defs>
</svg>
