<svg width="25" height="25" viewBox="0 0 25 25" fill="none" xmlns="http://www.w3.org/2000/svg">
<path d="M13.1616 11.4702C13.1616 11.056 12.8258 10.7202 12.4116 10.7202C11.9974 10.7202 11.6616 11.056 11.6616 11.4702V17.4702C11.6616 17.8844 11.9974 18.2202 12.4116 18.2202C12.8258 18.2202 13.1616 17.8844 13.1616 17.4702V11.4702Z" fill="#272A2D"/>
<path fill-rule="evenodd" clip-rule="evenodd" d="M12.4116 1.72018C6.47456 1.72018 1.66162 6.53312 1.66162 12.4702C1.66162 18.4072 6.47456 23.2202 12.4116 23.2202C18.3487 23.2202 23.1616 18.4072 23.1616 12.4702C23.1616 6.53312 18.3487 1.72018 12.4116 1.72018ZM3.16162 12.4702C3.16162 7.36155 7.30299 3.22018 12.4116 3.22018C17.5203 3.22018 21.6616 7.36155 21.6616 12.4702C21.6616 17.5788 17.5203 21.7202 12.4116 21.7202C7.30299 21.7202 3.16162 17.5788 3.16162 12.4702Z" fill="#272A2D"/>
<path d="M13.4116 8.47018C13.4116 9.02247 12.9639 9.47018 12.4116 9.47018C11.8593 9.47018 11.4116 9.02247 11.4116 8.47018C11.4116 7.9179 11.8593 7.47018 12.4116 7.47018C12.9639 7.47018 13.4116 7.9179 13.4116 8.47018Z" fill="#007DFB"/>
</svg>
